<svg fill="#000000" xmlns="http://www.w3.org/2000/svg"  viewBox="0 0 16 16" width="32px" height="32px"><path d="M13.95,3.69c-1.23-0.77-3.39-2.06-4.53-2.7C8.44,0.44,7.27,0.7,6.51,1.13c-0.49,0.28-1.22,0.63-1.99,1 c-0.7,0.33-1.41,0.68-1.99,0.99C1.6,3.61,1,4.64,1,5.75v4.72c0,1.05,0.57,2.02,1.49,2.53c0.46,0.25,1.04,0.61,1.65,0.98 c0.89,0.55,1.82,1.11,2.55,1.48C7.1,15.67,7.55,15.78,8,15.78c0.47,0,0.94-0.12,1.37-0.35c0.71-0.38,1.75-0.89,2.7-1.36 c0.95-0.46,1.76-0.86,2.18-1.1C14.75,12.69,15,12.2,15,11.5V5.61C15,4.82,14.61,4.11,13.95,3.69z M9.61,13.06v0.12 c0,0.05-0.03,0.1-0.07,0.12l-0.25,0.14c-0.03,0.02-0.07,0-0.07-0.05v-0.41c-0.21,0.09-0.42,0.11-0.56,0.06 c-0.02-0.01-0.03-0.05-0.02-0.09l0.08-0.38c0.01-0.03,0.03-0.06,0.05-0.08c0,0,0.01-0.01,0.02-0.01c0.01-0.01,0.03-0.01,0.04-0.01 c0.15,0.05,0.33,0.03,0.51-0.06c0.23-0.12,0.38-0.35,0.38-0.58c0-0.21-0.12-0.3-0.39-0.3c-0.35,0-0.68-0.07-0.69-0.58 c0-0.43,0.22-0.87,0.57-1.15V9.38c0-0.05,0.03-0.11,0.07-0.13L9.52,9.1c0.03-0.02,0.07,0,0.07,0.06v0.41 c0.18-0.07,0.33-0.09,0.46-0.05c0.03,0,0.05,0.04,0.04,0.09l-0.1,0.37c0,0.03-0.02,0.06-0.04,0.08c-0.01,0-0.01,0.01-0.02,0.01 c-0.01,0.01-0.03,0.01-0.04,0.01c-0.06-0.01-0.21-0.05-0.44,0.07c-0.25,0.13-0.34,0.34-0.34,0.5c0.01,0.19,0.1,0.25,0.44,0.25 c0.45,0.01,0.64,0.2,0.64,0.65C10.2,12,9.96,12.47,9.6,12.76L9.61,13.06z M12,12.5L11,13v-0.5l1-0.5V12.5z M13,5.62 C12.62,5.64,12.22,5.84,12,6L8,8c-0.59,0.42-1,1.11-1,2v3.36c-0.55-0.31-1.2-0.71-1.82-1.09c-0.63-0.39-1.24-0.76-1.72-1.02 C3.18,11.09,3,10.79,3,10.47V5.75c0-0.36,0.2-0.72,0.47-0.87c0.56-0.29,1.25-0.63,1.92-0.95c0.8-0.39,1.55-0.75,2.1-1.06 c0.23-0.12,0.48-0.19,0.68-0.19c0.11,0,0.2,0.01,0.27,0.05c1.12,0.63,3.23,1.89,4.44,2.66C12.96,5.43,13,5.52,13,5.61V5.62z"/></svg>