<?xml version="1.0" encoding="utf-8"?>
<!-- Generator: Adobe Illustrator 23.0.1, SVG Export Plug-In . SVG Version: 6.00 Build 0)  -->
<svg version="1.1" id="Layer_1" xmlns="http://www.w3.org/2000/svg" xmlns:xlink="http://www.w3.org/1999/xlink" x="0px" y="0px"
	 viewBox="0 0 530 731" style="enable-background:new 0 0 530 731;" xml:space="preserve">
<style type="text/css">
	.st0{clip-path:url(#SVGID_2_);}
	.st1{fill:#F2F2F2;}
	.st2{fill:#CCCCCC;}
	.st3{fill:#FFB8B8;}
	.st4{fill:#2F2E41;}
	.st5{fill:#6C63FF;}
</style>
<g>
	<defs>
		<rect id="SVGID_1_" x="-380" width="909.8" height="730.1"/>
	</defs>
	<clipPath id="SVGID_2_">
		<use xlink:href="#SVGID_1_"  style="overflow:visible;"/>
	</clipPath>
	<g class="st0">
		<path class="st1" d="M150,189.8C150.1,84.9,235.1-0.1,340,0c104.9,0.1,189.8,85.1,189.8,190c0,25.6-5.2,51-15.3,74.6
			c0.2-0.2,0.4-0.4,0.6-0.6c-8.4,19.7-20.1,37.7-34.6,53.5c0,0-0.1,0.1-0.1,0.1c-1.2,1.3-2.3,2.5-3.5,3.8
			c-17.4,18.1-38.1,32.6-61.1,42.6c-23,10-47.7,15.3-72.8,15.7l6.4,348.5h-19.8l4-230L304.8,483l4.4-8.3l24.5,12.9l1.9-108
			c-49.6-1.1-96.8-21.6-131.4-57.1C169.4,287,150,239.4,150,189.8z"/>
		<path class="st2" d="M3.4,730.1h381c0.3,0,0.5-0.1,0.7-0.3c0.2-0.2,0.3-0.4,0.3-0.7s-0.1-0.5-0.3-0.7c-0.2-0.2-0.4-0.3-0.7-0.3
			H3.4c-0.3,0-0.5,0.1-0.7,0.3c-0.2,0.2-0.3,0.4-0.3,0.7s0.1,0.5,0.3,0.7C2.9,730,3.2,730.1,3.4,730.1z"/>
		<path class="st3" d="M137.5,717.2l-12.7,0l-6.1-49.1l18.8,0L137.5,717.2z"/>
		<path class="st4" d="M140.8,713l-25.1,0h0c-4.2,0-8.3,1.7-11.3,4.7c-3,3-4.7,7.1-4.7,11.3v0.5l41.1,0L140.8,713z"/>
		<path class="st3" d="M226.8,708.5l-12.4,3.1l-17.7-46.2l18.3-4.5L226.8,708.5z"/>
		<path class="st4" d="M228.9,703.6l-24.4,6h0c-4.1,1-7.7,3.6-9.8,7.3c-2.2,3.6-2.8,8-1.8,12.1l0.1,0.5l39.9-9.9L228.9,703.6z"/>
		<path class="st4" d="M179.6,508.7l11.2,63.8c0,0,4.3,7.8,2.6,11.2c-1.7,3.4-2.6,3.4,0,5.2c2.6,1.7,6,0,5.2,4.3
			c-0.5,2.6-0.8,5.1-0.9,7.8l24.1,82.7c0,0,15.5,6.9,4.3,11.2c-11.2,4.3-22.4,7.8-25,3.4c-2.6-4.3,0-9.5,0-9.5L161.5,594
			c0,0-6-8.6-6-13.8c0-5.2-19.8-42.2-19.8-42.2s-0.9,37.1-1.7,39.6c-0.9,2.6,1.7,7.8,1.7,11.2c0,3.4,1.7,3.4,0,5.2
			c-1.7,1.7-1.7,21.5-1.7,21.5s10.3,76.7,4.3,77.6c-6,0.9-23.3-0.9-23.3-4.3c-0.1-0.9,0.1-1.8,0.6-2.6c0.5-0.8,1.2-1.4,2-1.7
			L106.4,619c0,0,0.9-4.3-0.9-7.8c-1.7-3.4-1.7-3.4-1.7-5.2s0.9-2.6,0-3.4c-0.6-0.7-0.9-1.7-0.9-2.6c0,0,1.7-5.2,0.9-6
			c-0.9-0.9-19.8-65.5-13.8-73.2C96,513,179.6,508.7,179.6,508.7z"/>
		<path class="st3" d="M141.1,371.1c-12.4,0-22.4-10-22.4-22.4c0-12.4,10-22.4,22.4-22.4c12.4,0,22.4,10,22.4,22.4
			C163.5,361.1,153.5,371.1,141.1,371.1z"/>
		<path class="st4" d="M156.9,364.9c-1.2-0.8-1.2-2.5-0.8-4c0.4-1.4,1.1-2.8,1-4.3c-0.2-4-5.7-5.6-6-9.6c-0.2-2.4,1.7-5.2,0.6-7.3
			c-0.7-1.3-2.3-1.8-3.8-2c-5.7-1-11.5-0.9-17.2,0.2l-0.8-2.2l-4.2,2.8c-0.2-1.3-2.1-1.5-3.3-0.8c-1.2,0.6-2.3,1.8-3.6,2
			c-2.1,0.3-3.8-2-3.7-4.2c0.1-2.2,1.5-4.2,2.9-5.9c3.5-4.4,7.8-8.1,12.6-10.9l-1.2-2.1l2.5,1l0.3-2.5l2.4,1.4l0-2.3
			c2.6,3,7.1,2.9,11.1,3.2c6.6,0.3,13,2.7,18.3,6.8c2.6,2.1,4.8,4.8,6.3,7.8c1.5,3,2.4,6.3,2.6,9.7c0.2,5.3-1.6,11.7-5.5,15.6
			C164,360.7,158.8,358.6,156.9,364.9z"/>
		<path class="st3" d="M86.1,566.1c1.1-1.1,2-2.4,2.6-3.8c0.6-1.4,0.8-3,0.7-4.6c-0.1-1.6-0.5-3.1-1.3-4.5c-0.7-1.4-1.8-2.6-3-3.5
			l6-23.6L77.7,519l-8,33.5c-1.4,2.2-2,4.9-1.6,7.5c0.4,2.6,1.7,5,3.8,6.6c2,1.7,4.6,2.6,7.2,2.5C81.7,568.9,84.2,567.9,86.1,566.1z
			"/>
		<path class="st5" d="M122.1,535.5c27.2,0,52.3-12.3,52.6-12.5l0.3-0.1l2.3-54.8c0.7-1.9,13.7-40.2,15.9-52.3
			c2.2-12.3-30.2-23.1-34.2-24.4l-0.9-9.9l-36.4-3.9l-4.6,12.7l-13,4.9c-1.5,0.6-2.7,1.6-3.4,3s-0.9,3-0.6,4.6l7.3,29.5l-14.3,97.6
			l0.4,0.2C102.6,533.7,112.3,535.6,122.1,535.5z"/>
		<path class="st5" d="M89.6,541.6l12.6-52l13.7-62.7l-6.9-31.3H103c-0.1,0-10.9,0.2-13.2,14.1c-2.3,13.5-9,56.5-9.1,56.9
			l-11.5,73.4L89.6,541.6z"/>
		<path class="st3" d="M143.6,532.8c0.1-1.6,0.5-3.1,1.2-4.5c0.7-1.4,1.7-2.6,3-3.5c1.2-0.9,2.7-1.6,4.2-1.9c1.5-0.3,3.1-0.3,4.6,0
			l14.1-19.9l14.2,5.6l-20.3,27.8c-0.8,2.5-2.4,4.7-4.6,6.1c-2.2,1.4-4.9,1.9-7.5,1.4c-2.6-0.4-4.9-1.8-6.6-3.9
			S143.5,535.4,143.6,532.8L143.6,532.8z"/>
		<path class="st5" d="M171.1,531.3l42.7-55.4l-16-50.3c-1.2-12.6-9.1-16.2-9.4-16.3l-0.5-0.2L174,446.3l10.2,27.3l-25.1,42.2
			L171.1,531.3z"/>
	</g>
</g>
</svg>
