<svg width="546" height="600" viewBox="0 0 546 600" fill="none" xmlns="http://www.w3.org/2000/svg">
<rect width="546" height="600" rx="30" fill="#3930AF"/>
<mask id="mask0_78_77" style="mask-type:alpha" maskUnits="userSpaceOnUse" x="0" y="0" width="546" height="600">
<rect width="546" height="600" rx="30" fill="#3930AF"/>
</mask>
<g mask="url(#mask0_78_77)">
<path d="M92.5 218C203.785 218 294 133.83 294 30C294 -73.8295 203.785 -158 92.5 -158C-18.7854 -158 -109 -73.8295 -109 30C-109 133.83 -18.7854 218 92.5 218Z" fill="#DE7682"/>
</g>
<g clip-path="url(#clip0_78_77)">
<path d="M395.803 523.066L399.82 532.056C396.555 531.537 393.518 534.321 393.45 537.895C393.382 541.47 396.294 545.188 399.559 545.696C398.935 548.472 396.242 549.695 393.905 550.817C391.567 551.938 389.048 553.799 389.222 556.756C389.362 559.13 391.329 561.226 393.417 562.069C395.506 562.912 397.698 562.783 399.814 562.641C396.608 565.988 396.295 572.28 399.111 576.794C401.926 581.308 407.549 583.53 411.758 581.793C408.784 585.486 409.43 592.25 413.122 596.062C416.843 599.905 422.237 600.276 426.952 599.872C438.958 598.858 450.399 594.333 459.842 586.861C463.446 584.002 466.813 580.64 468.869 576.254C470.926 571.868 471.532 566.315 469.616 561.324C470.133 567.577 476.402 572.515 482.042 572.791C487.682 573.067 492.606 569.896 496.791 566.28C502.355 561.472 507.508 554.731 506.744 546.415C506.366 542.297 504.564 538.338 502.797 534.502L499.372 527.066C497.989 524.064 496.574 521.011 494.493 518.492C492.411 515.973 489.522 514.023 486.631 514.041C487.292 511.027 487.956 507.9 487.402 504.697C486.848 501.494 484.727 498.177 481.842 497.427C478.17 496.473 475.058 499.855 471.366 499.536C467.813 499.229 464.877 495.67 461.426 494.259C460.006 493.646 458.437 493.46 456.912 493.723C455.387 493.986 453.972 494.688 452.84 495.742C450.653 497.873 449.741 501.474 450.526 504.881C451.213 507.866 453.043 510.499 454.154 513.377C455.264 516.256 455.437 519.957 453.304 521.529C450.73 523.426 446.812 520.845 444.801 517.722C442.791 514.599 441.636 510.817 439.093 508.191C436.092 505.091 431.394 504.364 428.304 506.522C425.214 508.68 424.032 513.513 425.59 517.621C426.864 520.979 429.782 524.377 428.77 527.54C427.7 530.883 423.02 530.459 420.197 528.097C417.374 525.735 415.5 522.176 412.711 519.761C409.879 517.308 406.181 516.233 402.934 516.919C401.287 517.301 399.763 518.09 398.502 519.214C397.242 520.339 396.285 521.762 395.721 523.353" fill="#E6E6E6"/>
<path d="M460.835 497.803L452.501 501.668C451.248 502.285 449.827 502.477 448.455 502.212C447.245 501.927 446.428 501.188 446.213 500.186L444.274 491.145C443.907 489.439 445.322 487.421 447.638 486.347L452.241 484.213C454.556 483.139 457.014 483.361 458.084 484.74L463.755 492.05C464.384 492.861 464.422 493.961 463.861 495.068C463.178 496.285 462.116 497.245 460.835 497.803Z" fill="#3F3D56"/>
<path d="M202.408 330.704C210.243 309.299 222.471 289.762 238.307 273.346C251.743 259.424 272.653 260.003 272.653 260.003L272.773 259.855C277.805 253.66 284.559 249.086 292.185 246.708C299.812 244.33 307.973 244.253 315.643 246.487C317.637 247.058 319.17 247.311 319.9 247.057C333.197 242.411 332.572 231.926 344.044 223.48C364.132 208.69 430.76 225.631 440.156 252.846C447.77 274.902 481.76 285.593 494.459 302.464C496.445 305.102 498.393 307.771 500.304 310.47C501.2 311.724 502.086 312.988 502.961 314.261C511.959 327.266 520.03 340.886 527.116 355.02C531.763 364.254 535.801 373.781 539.206 383.54C552.449 422.184 547.921 450.976 511.404 443.863C507.082 443.019 502.863 442.263 498.748 441.597C492.789 440.626 487.038 439.829 481.495 439.204C474.031 438.357 466.93 437.801 460.191 437.538C457.925 437.447 455.701 437.386 453.519 437.355C421.247 436.909 397.31 442.971 379.074 452.383C375.982 453.974 373.053 455.658 370.285 457.433C366.058 460.13 362.022 463.115 358.205 466.366C352.923 470.89 348.053 475.871 343.65 481.252L343.408 481.548C322.079 507.59 315.059 536.421 300.222 541.497C236.798 563.2 196.685 484.526 192.571 407.565C192.363 403.687 192.249 399.82 192.227 395.964C192.214 394.24 192.222 392.521 192.252 390.807C192.317 386.334 192.515 381.891 192.846 377.501C192.969 375.822 193.112 374.152 193.276 372.492C193.455 370.701 193.651 368.921 193.877 367.152C195.49 354.184 198.313 341.847 202.408 330.704Z" fill="#6C63FF"/>
<path d="M398.992 373.048C393.926 375.401 393.843 385.945 395.431 389.361L398.309 395.545L416.657 387.036L413.778 380.852C412.187 377.438 404.061 370.702 398.992 373.048Z" fill="#3F3D56"/>
<path d="M349.688 461.827C349.366 461.827 349.047 461.749 348.761 461.6C348.475 461.451 348.229 461.235 348.044 460.971C347.859 460.707 347.74 460.403 347.698 460.083C347.656 459.764 347.692 459.439 347.803 459.136C347.893 458.889 348.031 458.662 348.209 458.468C348.388 458.274 348.603 458.118 348.842 458.008L443.591 414.066C443.83 413.956 444.089 413.893 444.352 413.882C444.615 413.871 444.878 413.911 445.125 414.001C445.373 414.092 445.6 414.23 445.794 414.408C445.988 414.585 446.145 414.8 446.256 415.038C446.479 415.52 446.502 416.07 446.32 416.569C446.137 417.067 445.764 417.473 445.282 417.698H445.282L350.532 461.639C350.268 461.762 349.98 461.826 349.688 461.827Z" fill="#3F3D56"/>
<path d="M423.803 390.98L396.72 403.54L439.205 494.815L466.289 482.254L423.803 390.98Z" fill="#E6E6E6"/>
<path d="M322.133 276.08C317.068 278.434 316.985 288.977 318.573 292.393L321.451 298.577L339.798 290.068L336.92 283.885C335.329 280.47 327.202 273.734 322.133 276.08Z" fill="#3F3D56"/>
<path d="M435.624 508.295L427.29 512.161C426.037 512.778 424.616 512.969 423.244 512.705C422.034 512.419 421.217 511.681 421.002 510.678L419.063 501.637C418.697 499.932 420.112 497.914 422.427 496.84L427.03 494.706C429.346 493.632 431.803 493.854 432.873 495.233L438.544 502.543C439.174 503.353 439.212 504.453 438.65 505.56C437.968 506.777 436.905 507.738 435.624 508.295Z" fill="#3F3D56"/>
<path d="M410.001 520.985L401.666 524.85C400.414 525.468 398.993 525.659 397.621 525.394C396.411 525.109 395.593 524.37 395.379 523.368L393.439 514.327C393.073 512.621 394.488 510.603 396.804 509.53L401.406 507.395C403.722 506.321 406.18 506.543 407.249 507.922L412.921 515.232C413.55 516.043 413.588 517.143 413.026 518.25C412.344 519.467 411.281 520.428 410.001 520.985Z" fill="#3F3D56"/>
<path d="M354.172 309.538L327.088 322.098L412.967 506.6L440.051 494.039L354.172 309.538Z" fill="#E6E6E6"/>
<path d="M382.274 404.648L379.235 397.973L380.984 397.167L384.014 403.821L427.886 500.918L426.138 501.729" fill="#3F3D56"/>
<path d="M416.551 399.1L413.512 392.425L415.261 391.62L418.291 398.273L462.163 495.37L460.415 496.181" fill="#3F3D56"/>
<path d="M366.956 324.303L330.258 341.322C327.922 337.694 320.879 319.101 322.46 313.585L321.273 308.324L346.612 296.573L350.003 300.738C355.038 302.28 364.839 319.743 366.956 324.303Z" fill="#E6E6E6"/>
<path d="M347.671 296.798L321.523 308.925C320.557 309.372 319.53 309.208 319.227 308.557C319.183 308.463 319.157 308.363 319.147 308.26L317.794 293.849C317.736 293.232 318.265 292.533 319.073 292.158L336.414 284.116C337.222 283.741 338.098 283.789 338.533 284.231L348.694 294.557C349.214 295.085 348.931 295.989 348.063 296.576C347.939 296.661 347.807 296.735 347.671 296.798Z" fill="#E6E6E6"/>
<path d="M368.179 409.7C367.896 409.701 367.614 409.668 367.339 409.601C366.951 409.521 366.587 409.353 366.274 409.111C365.961 408.868 365.708 408.558 365.534 408.202L349.548 373.858C348.887 372.436 349.775 370.617 351.528 369.804L374.936 358.948C376.69 358.135 378.655 358.63 379.317 360.052L395.303 394.397C395.463 394.759 395.537 395.152 395.521 395.547C395.505 395.942 395.399 396.328 395.21 396.676C394.799 397.463 394.134 398.088 393.323 398.45L369.915 409.306C369.372 409.562 368.78 409.696 368.179 409.7Z" fill="#3F3D56"/>
<path d="M371.381 414.899L344.297 427.459L386.782 518.734L413.866 506.174L371.381 414.899Z" fill="#E6E6E6"/>
<path d="M338.014 298.304L330.072 301.987C328.539 302.698 326.471 301.514 325.463 299.347C324.455 297.181 324.881 294.84 326.414 294.129L334.356 290.446C335.889 289.735 337.957 290.919 338.965 293.086C339.973 295.252 339.547 297.593 338.014 298.304Z" fill="#3F3D56"/>
<path d="M347.097 396.721C342.032 399.075 341.949 409.619 343.537 413.035L346.415 419.219L364.762 410.71L361.884 404.526C360.293 401.111 352.166 394.375 347.097 396.721Z" fill="#3F3D56"/>
<path d="M262.958 375.676C261.169 376.866 259.338 374.034 261.162 372.897C262.951 371.707 264.781 374.539 262.958 375.676Z" fill="#E6E6E6"/>
<path d="M449.165 334.989C447.376 336.179 445.545 333.347 447.368 332.21C449.157 331.02 450.988 333.852 449.165 334.989Z" fill="#E6E6E6"/>
<path d="M322.248 367.354C320.459 368.543 318.628 365.712 320.451 364.575C322.24 363.385 324.071 366.217 322.248 367.354Z" fill="#E6E6E6"/>
<path d="M262.958 478.318C261.169 479.508 259.338 476.677 261.162 475.54C262.951 474.35 264.781 477.182 262.958 478.318Z" fill="#E6E6E6"/>
<path d="M354.209 246.679C352.42 247.869 350.589 245.037 352.412 243.9C354.201 242.71 356.032 245.542 354.209 246.679Z" fill="#E6E6E6"/>
<path d="M266.201 301.237C264.412 302.427 262.581 299.595 264.404 298.458C266.193 297.268 268.024 300.1 266.201 301.237Z" fill="#E6E6E6"/>
<path d="M392.783 285.596L391.645 285.347L391.894 284.21L391.135 284.044L390.886 285.181L389.748 284.932L389.581 285.689L390.719 285.939L390.47 287.075L391.229 287.241L391.479 286.104L392.617 286.353L392.783 285.596Z" fill="#E6E6E6"/>
<path d="M207.458 380.276L206.32 380.027L206.569 378.891L205.811 378.725L205.561 379.861L204.422 379.612L204.256 380.37L205.395 380.619L205.145 381.755L205.904 381.921L206.154 380.785L207.292 381.034L207.458 380.276Z" fill="#E6E6E6"/>
<path d="M440.859 428.573C439.912 429.01 438.829 429.056 437.849 428.698C436.868 428.34 436.07 427.609 435.629 426.664L430.945 416.601C430.507 415.656 430.462 414.576 430.821 413.598C431.18 412.62 431.913 411.824 432.859 411.385C433.805 410.947 434.887 410.901 435.867 411.258C436.847 411.615 437.646 412.345 438.086 413.289L442.77 423.353C443.209 424.298 443.254 425.378 442.896 426.357C442.538 427.336 441.805 428.132 440.859 428.573Z" fill="#3F3D56"/>
<path d="M361.188 465.561C360.241 465.999 359.159 466.044 358.178 465.687C357.198 465.329 356.4 464.598 355.959 463.653L351.275 453.59C350.836 452.645 350.791 451.565 351.15 450.587C351.509 449.609 352.242 448.813 353.188 448.374C354.135 447.935 355.217 447.889 356.197 448.246C357.177 448.603 357.975 449.334 358.416 450.278L363.1 460.341C363.539 461.287 363.584 462.367 363.226 463.346C362.867 464.324 362.135 465.121 361.188 465.561Z" fill="#3F3D56"/>
<path d="M433.643 406.586L402.235 421.152C400.235 418.046 394.208 402.134 395.561 397.413L396.225 392.131L414.979 382.947L419.134 386.417C424.989 384.441 433.595 398.923 433.643 406.586Z" fill="#E6E6E6"/>
<path d="M419.061 405.576L411.119 409.259C409.586 409.97 407.254 408.218 405.921 405.353C404.588 402.489 404.75 399.58 406.283 398.869L414.225 395.186C415.758 394.475 418.09 396.228 419.423 399.092C420.756 401.956 420.594 404.865 419.061 405.576Z" fill="#3F3D56"/>
<path d="M351.703 424.529L348.664 417.854L350.413 417.049L353.443 423.703L397.315 520.8L395.567 521.61" fill="#3F3D56"/>
<path d="M381.748 430.26L350.341 444.825C345.707 442.437 338.626 426.812 343.667 421.086L344.331 415.805L363.084 406.621L367.24 410.091C371.549 411.411 379.937 426.357 381.748 430.26Z" fill="#E6E6E6"/>
<path d="M366.521 427.861L358.578 431.545C357.045 432.255 354.858 430.815 353.703 428.333C352.548 425.852 352.856 423.254 354.388 422.544L362.331 418.86C363.864 418.149 366.051 419.59 367.206 422.071C368.361 424.553 368.053 427.15 366.521 427.861Z" fill="#3F3D56"/>
<path d="M207.342 360.333C233.691 360.333 255.052 339.012 255.052 312.711C255.052 286.41 233.691 265.088 207.342 265.088C180.993 265.088 159.633 286.41 159.633 312.711C159.633 339.012 180.993 360.333 207.342 360.333Z" fill="#DE7682"/>
<path opacity="0.3" d="M402.958 362.312L431.951 277.789L400.115 361.3C399.957 361.498 399.849 361.731 399.8 361.979C399.751 362.227 399.762 362.483 399.831 362.727C399.901 362.97 400.028 363.193 400.201 363.377C400.375 363.562 400.59 363.702 400.829 363.787C401.067 363.872 401.323 363.899 401.574 363.866C401.825 363.832 402.065 363.74 402.273 363.595C402.481 363.451 402.652 363.259 402.771 363.036C402.89 362.813 402.954 362.564 402.958 362.312H402.958Z" fill="#F0F0F0"/>
<path d="M476.863 311.931C471.188 313.814 464.896 315.663 457.987 317.48C422.254 326.871 374.357 334.196 323.119 338.107C271.882 342.017 223.426 342.046 186.678 338.187C168.776 336.307 154.617 333.604 144.594 330.151C133.983 326.496 128.407 322.091 128.021 317.06C127.27 307.258 146.648 298.631 163.035 293.12L163.479 294.435C140.974 302.003 128.874 310 129.407 316.954C130.085 325.811 151.013 333.047 186.823 336.808C223.491 340.658 271.857 340.628 323.014 336.724C374.169 332.819 421.978 325.508 457.633 316.138C492.454 306.988 512.037 296.66 511.358 287.803C510.795 280.449 496.273 274.158 470.468 270.089L470.685 268.719C489.435 271.676 511.952 277.369 512.744 287.697C513.129 292.728 508.289 297.928 498.357 303.151C492.696 306.128 485.503 309.065 476.863 311.931Z" fill="#3F3D56"/>
<path d="M490.882 396.394C493.62 396.394 495.84 394.179 495.84 391.446C495.84 388.713 493.62 386.498 490.882 386.498C488.145 386.498 485.925 388.713 485.925 391.446C485.925 394.179 488.145 396.394 490.882 396.394Z" fill="#DE7682"/>
<path d="M522.38 530.477C525.118 530.477 527.337 528.261 527.337 525.528C527.337 522.795 525.118 520.58 522.38 520.58C519.642 520.58 517.423 522.795 517.423 525.528C517.423 528.261 519.642 530.477 522.38 530.477Z" fill="#F2F2F2"/>
<path d="M353.312 560.605C358.65 560.605 362.977 556.286 362.977 550.958C362.977 545.629 358.65 541.31 353.312 541.31C347.974 541.31 343.647 545.629 343.647 550.958C343.647 556.286 347.974 560.605 353.312 560.605Z" fill="#F2F2F2"/>
<path d="M279.663 432.92C282.401 432.92 284.621 430.705 284.621 427.972C284.621 425.239 282.401 423.023 279.663 423.023C276.926 423.023 274.706 425.239 274.706 427.972C274.706 430.705 276.926 432.92 279.663 432.92Z" fill="#3F3D56"/>
<path d="M446.323 439.36L467.712 444.887L480.83 470.607L458.652 471.475L446.323 439.36Z" fill="#E6E6E6"/>
<path d="M396.955 402.282L408.726 414.039L438.625 478.563L433.12 483.31L396.955 402.282Z" fill="#CCCCCC"/>
<path d="M371.359 412.939L372.282 429.536L400.502 494.808L407.717 493.881L371.359 412.939Z" fill="#CCCCCC"/>
<path d="M370.588 479.987L359.069 498.806L367.561 526.394L384.103 511.623L370.588 479.987Z" fill="#E6E6E6"/>
<path d="M472.345 491.55C466.364 491.55 459.809 491.325 452.679 490.873C415.802 488.536 368.035 480.409 318.177 467.991C268.319 455.572 222.327 440.345 188.673 425.114C172.279 417.695 159.697 410.672 151.276 404.24C142.361 397.431 138.461 391.496 139.685 386.6C142.07 377.062 163.184 374.976 180.476 374.905L180.482 376.292C156.735 376.389 142.725 380.169 141.034 386.936C138.879 395.554 156.452 409.009 189.247 423.851C222.827 439.048 268.734 454.246 318.513 466.645C368.292 479.044 415.971 487.157 452.767 489.489C488.702 491.767 510.548 488.131 512.703 479.512C514.491 472.357 502.698 461.816 479.496 449.83L480.135 448.598C496.994 457.307 516.563 469.798 514.051 479.848C512.827 484.744 506.591 488.154 495.516 489.984C489.203 491.027 481.449 491.55 472.345 491.55Z" fill="#3F3D56"/>
</g>
<path d="M64.4375 87.9062H73.7812C73.5938 90.9688 72.75 93.6875 71.25 96.0625C69.7708 98.4375 67.6979 100.292 65.0312 101.625C62.3854 102.958 59.1979 103.625 55.4688 103.625C52.5521 103.625 49.9375 103.125 47.625 102.125C45.3125 101.104 43.3333 99.6458 41.6875 97.75C40.0625 95.8542 38.8229 93.5625 37.9688 90.875C37.1146 88.1875 36.6875 85.1771 36.6875 81.8438V78.6875C36.6875 75.3542 37.125 72.3438 38 69.6562C38.8958 66.9479 40.1667 64.6458 41.8125 62.75C43.4792 60.8542 45.4688 59.3958 47.7812 58.375C50.0938 57.3542 52.6771 56.8438 55.5312 56.8438C59.3229 56.8438 62.5208 57.5312 65.125 58.9062C67.75 60.2812 69.7812 62.1771 71.2188 64.5938C72.6771 67.0104 73.5521 69.7604 73.8438 72.8438H64.4688C64.3646 71.0104 64 69.4583 63.375 68.1875C62.75 66.8958 61.8021 65.9271 60.5312 65.2812C59.2812 64.6146 57.6146 64.2812 55.5312 64.2812C53.9688 64.2812 52.6042 64.5729 51.4375 65.1562C50.2708 65.7396 49.2917 66.625 48.5 67.8125C47.7083 69 47.1146 70.5 46.7188 72.3125C46.3438 74.1042 46.1562 76.2083 46.1562 78.625V81.8438C46.1562 84.1979 46.3333 86.2708 46.6875 88.0625C47.0417 89.8333 47.5833 91.3333 48.3125 92.5625C49.0625 93.7708 50.0208 94.6875 51.1875 95.3125C52.375 95.9167 53.8021 96.2188 55.4688 96.2188C57.4271 96.2188 59.0417 95.9062 60.3125 95.2812C61.5833 94.6562 62.5521 93.7292 63.2188 92.5C63.9062 91.2708 64.3125 89.7396 64.4375 87.9062ZM77.9375 86.4375V85.7812C77.9375 83.3021 78.2917 81.0208 79 78.9375C79.7083 76.8333 80.7396 75.0104 82.0938 73.4688C83.4479 71.9271 85.1146 70.7292 87.0938 69.875C89.0729 69 91.3438 68.5625 93.9062 68.5625C96.4688 68.5625 98.75 69 100.75 69.875C102.75 70.7292 104.427 71.9271 105.781 73.4688C107.156 75.0104 108.198 76.8333 108.906 78.9375C109.615 81.0208 109.969 83.3021 109.969 85.7812V86.4375C109.969 88.8958 109.615 91.1771 108.906 93.2812C108.198 95.3646 107.156 97.1875 105.781 98.75C104.427 100.292 102.76 101.49 100.781 102.344C98.8021 103.198 96.5312 103.625 93.9688 103.625C91.4062 103.625 89.125 103.198 87.125 102.344C85.1458 101.49 83.4688 100.292 82.0938 98.75C80.7396 97.1875 79.7083 95.3646 79 93.2812C78.2917 91.1771 77.9375 88.8958 77.9375 86.4375ZM86.9375 85.7812V86.4375C86.9375 87.8542 87.0625 89.1771 87.3125 90.4062C87.5625 91.6354 87.9583 92.7188 88.5 93.6562C89.0625 94.5729 89.7917 95.2917 90.6875 95.8125C91.5833 96.3333 92.6771 96.5938 93.9688 96.5938C95.2188 96.5938 96.2917 96.3333 97.1875 95.8125C98.0833 95.2917 98.8021 94.5729 99.3438 93.6562C99.8854 92.7188 100.281 91.6354 100.531 90.4062C100.802 89.1771 100.938 87.8542 100.938 86.4375V85.7812C100.938 84.4062 100.802 83.1146 100.531 81.9062C100.281 80.6771 99.875 79.5938 99.3125 78.6562C98.7708 77.6979 98.0521 76.9479 97.1562 76.4062C96.2604 75.8646 95.1771 75.5938 93.9062 75.5938C92.6354 75.5938 91.5521 75.8646 90.6562 76.4062C89.7812 76.9479 89.0625 77.6979 88.5 78.6562C87.9583 79.5938 87.5625 80.6771 87.3125 81.9062C87.0625 83.1146 86.9375 84.4062 86.9375 85.7812ZM124.312 76.4062V103H115.312V69.1875H123.75L124.312 76.4062ZM123 84.9062H120.562C120.562 82.4062 120.885 80.1562 121.531 78.1562C122.177 76.1354 123.083 74.4167 124.25 73C125.417 71.5625 126.802 70.4688 128.406 69.7188C130.031 68.9479 131.844 68.5625 133.844 68.5625C135.427 68.5625 136.875 68.7917 138.188 69.25C139.5 69.7083 140.625 70.4375 141.562 71.4375C142.521 72.4375 143.25 73.7604 143.75 75.4062C144.271 77.0521 144.531 79.0625 144.531 81.4375V103H135.469V81.4062C135.469 79.9062 135.26 78.7396 134.844 77.9062C134.427 77.0729 133.812 76.4896 133 76.1562C132.208 75.8021 131.229 75.625 130.062 75.625C128.854 75.625 127.802 75.8646 126.906 76.3438C126.031 76.8229 125.302 77.4896 124.719 78.3438C124.156 79.1771 123.729 80.1562 123.438 81.2812C123.146 82.4062 123 83.6146 123 84.9062ZM167.938 69.1875V75.5625H148.25V69.1875H167.938ZM153.125 60.8438H162.125V92.8125C162.125 93.7917 162.25 94.5417 162.5 95.0625C162.771 95.5833 163.167 95.9479 163.688 96.1562C164.208 96.3438 164.865 96.4375 165.656 96.4375C166.219 96.4375 166.719 96.4167 167.156 96.375C167.615 96.3125 168 96.25 168.312 96.1875L168.344 102.812C167.573 103.062 166.74 103.26 165.844 103.406C164.948 103.552 163.958 103.625 162.875 103.625C160.896 103.625 159.167 103.302 157.688 102.656C156.229 101.99 155.104 100.927 154.312 99.4688C153.521 98.0104 153.125 96.0938 153.125 93.7188V60.8438ZM191.312 95.375V80.3125C191.312 79.2292 191.135 78.3021 190.781 77.5312C190.427 76.7396 189.875 76.125 189.125 75.6875C188.396 75.25 187.448 75.0312 186.281 75.0312C185.281 75.0312 184.417 75.2083 183.688 75.5625C182.958 75.8958 182.396 76.3854 182 77.0312C181.604 77.6562 181.406 78.3958 181.406 79.25H172.406C172.406 77.8125 172.74 76.4479 173.406 75.1562C174.073 73.8646 175.042 72.7292 176.312 71.75C177.583 70.75 179.094 69.9688 180.844 69.4062C182.615 68.8438 184.594 68.5625 186.781 68.5625C189.406 68.5625 191.74 69 193.781 69.875C195.823 70.75 197.427 72.0625 198.594 73.8125C199.781 75.5625 200.375 77.75 200.375 80.375V94.8438C200.375 96.6979 200.49 98.2188 200.719 99.4062C200.948 100.573 201.281 101.594 201.719 102.469V103H192.625C192.188 102.083 191.854 100.938 191.625 99.5625C191.417 98.1667 191.312 96.7708 191.312 95.375ZM192.5 82.4062L192.562 87.5H187.531C186.344 87.5 185.312 87.6354 184.438 87.9062C183.562 88.1771 182.844 88.5625 182.281 89.0625C181.719 89.5417 181.302 90.1042 181.031 90.75C180.781 91.3958 180.656 92.1042 180.656 92.875C180.656 93.6458 180.833 94.3438 181.188 94.9688C181.542 95.5729 182.052 96.0521 182.719 96.4062C183.385 96.7396 184.167 96.9062 185.062 96.9062C186.417 96.9062 187.594 96.6354 188.594 96.0938C189.594 95.5521 190.365 94.8854 190.906 94.0938C191.469 93.3021 191.76 92.5521 191.781 91.8438L194.156 95.6562C193.823 96.5104 193.365 97.3958 192.781 98.3125C192.219 99.2292 191.5 100.094 190.625 100.906C189.75 101.698 188.698 102.354 187.469 102.875C186.24 103.375 184.781 103.625 183.094 103.625C180.948 103.625 179 103.198 177.25 102.344C175.521 101.469 174.146 100.271 173.125 98.75C172.125 97.2083 171.625 95.4583 171.625 93.5C171.625 91.7292 171.958 90.1562 172.625 88.7812C173.292 87.4062 174.271 86.25 175.562 85.3125C176.875 84.3542 178.51 83.6354 180.469 83.1562C182.427 82.6562 184.698 82.4062 187.281 82.4062H192.5ZM221.281 96.5938C222.385 96.5938 223.365 96.3854 224.219 95.9688C225.073 95.5312 225.74 94.9271 226.219 94.1562C226.719 93.3646 226.979 92.4375 227 91.375H235.469C235.448 93.75 234.812 95.8646 233.562 97.7188C232.312 99.5521 230.635 101 228.531 102.062C226.427 103.104 224.073 103.625 221.469 103.625C218.844 103.625 216.552 103.188 214.594 102.312C212.656 101.438 211.042 100.229 209.75 98.6875C208.458 97.125 207.49 95.3125 206.844 93.25C206.198 91.1667 205.875 88.9375 205.875 86.5625V85.6562C205.875 83.2604 206.198 81.0312 206.844 78.9688C207.49 76.8854 208.458 75.0729 209.75 73.5312C211.042 71.9688 212.656 70.75 214.594 69.875C216.531 69 218.802 68.5625 221.406 68.5625C224.177 68.5625 226.604 69.0938 228.688 70.1562C230.792 71.2188 232.438 72.7396 233.625 74.7188C234.833 76.6771 235.448 79 235.469 81.6875H227C226.979 80.5625 226.74 79.5417 226.281 78.625C225.844 77.7083 225.198 76.9792 224.344 76.4375C223.51 75.875 222.479 75.5938 221.25 75.5938C219.938 75.5938 218.865 75.875 218.031 76.4375C217.198 76.9792 216.552 77.7292 216.094 78.6875C215.635 79.625 215.312 80.6979 215.125 81.9062C214.958 83.0938 214.875 84.3438 214.875 85.6562V86.5625C214.875 87.875 214.958 89.1354 215.125 90.3438C215.292 91.5521 215.604 92.625 216.062 93.5625C216.542 94.5 217.198 95.2396 218.031 95.7812C218.865 96.3229 219.948 96.5938 221.281 96.5938ZM257.25 69.1875V75.5625H237.562V69.1875H257.25ZM242.438 60.8438H251.438V92.8125C251.438 93.7917 251.562 94.5417 251.812 95.0625C252.083 95.5833 252.479 95.9479 253 96.1562C253.521 96.3438 254.177 96.4375 254.969 96.4375C255.531 96.4375 256.031 96.4167 256.469 96.375C256.927 96.3125 257.312 96.25 257.625 96.1875L257.656 102.812C256.885 103.062 256.052 103.26 255.156 103.406C254.26 103.552 253.271 103.625 252.188 103.625C250.208 103.625 248.479 103.302 247 102.656C245.542 101.99 244.417 100.927 243.625 99.4688C242.833 98.0104 242.438 96.0938 242.438 93.7188V60.8438ZM287.312 76.1875V103H278.281V69.1875H286.75L287.312 76.1875ZM286.062 84.9062H283.562C283.562 82.5521 283.844 80.3854 284.406 78.4062C284.99 76.4062 285.833 74.6771 286.938 73.2188C288.062 71.7396 289.448 70.5938 291.094 69.7812C292.74 68.9688 294.646 68.5625 296.812 68.5625C298.312 68.5625 299.688 68.7917 300.938 69.25C302.188 69.6875 303.26 70.3854 304.156 71.3438C305.073 72.2812 305.781 73.5104 306.281 75.0312C306.781 76.5312 307.031 78.3333 307.031 80.4375V103H298.031V81.4375C298.031 79.8958 297.823 78.7083 297.406 77.875C296.99 77.0417 296.396 76.4583 295.625 76.125C294.875 75.7917 293.969 75.625 292.906 75.625C291.74 75.625 290.719 75.8646 289.844 76.3438C288.99 76.8229 288.281 77.4896 287.719 78.3438C287.156 79.1771 286.74 80.1562 286.469 81.2812C286.198 82.4062 286.062 83.6146 286.062 84.9062ZM306.188 83.875L302.969 84.2812C302.969 82.0729 303.24 80.0208 303.781 78.125C304.344 76.2292 305.167 74.5625 306.25 73.125C307.354 71.6875 308.719 70.5729 310.344 69.7812C311.969 68.9688 313.844 68.5625 315.969 68.5625C317.594 68.5625 319.073 68.8021 320.406 69.2812C321.74 69.7396 322.875 70.4792 323.812 71.5C324.771 72.5 325.5 73.8125 326 75.4375C326.521 77.0625 326.781 79.0521 326.781 81.4062V103H317.75V81.4062C317.75 79.8438 317.542 78.6562 317.125 77.8438C316.729 77.0104 316.146 76.4375 315.375 76.125C314.625 75.7917 313.729 75.625 312.688 75.625C311.604 75.625 310.656 75.8438 309.844 76.2812C309.031 76.6979 308.354 77.2812 307.812 78.0312C307.271 78.7812 306.865 79.6562 306.594 80.6562C306.323 81.6354 306.188 82.7083 306.188 83.875ZM349.312 103.625C346.688 103.625 344.333 103.208 342.25 102.375C340.167 101.521 338.396 100.344 336.938 98.8438C335.5 97.3438 334.396 95.6042 333.625 93.625C332.854 91.625 332.469 89.5 332.469 87.25V86C332.469 83.4375 332.833 81.0938 333.562 78.9688C334.292 76.8438 335.333 75 336.688 73.4375C338.062 71.875 339.729 70.6771 341.688 69.8438C343.646 68.9896 345.854 68.5625 348.312 68.5625C350.708 68.5625 352.833 68.9583 354.688 69.75C356.542 70.5417 358.094 71.6667 359.344 73.125C360.615 74.5833 361.573 76.3333 362.219 78.375C362.865 80.3958 363.188 82.6458 363.188 85.125V88.875H336.312V82.875H354.344V82.1875C354.344 80.9375 354.115 79.8229 353.656 78.8438C353.219 77.8438 352.552 77.0521 351.656 76.4688C350.76 75.8854 349.615 75.5938 348.219 75.5938C347.031 75.5938 346.01 75.8542 345.156 76.375C344.302 76.8958 343.604 77.625 343.062 78.5625C342.542 79.5 342.146 80.6042 341.875 81.875C341.625 83.125 341.5 84.5 341.5 86V87.25C341.5 88.6042 341.688 89.8542 342.062 91C342.458 92.1458 343.01 93.1354 343.719 93.9688C344.448 94.8021 345.323 95.4479 346.344 95.9062C347.385 96.3646 348.562 96.5938 349.875 96.5938C351.5 96.5938 353.01 96.2812 354.406 95.6562C355.823 95.0104 357.042 94.0417 358.062 92.75L362.438 97.5C361.729 98.5208 360.76 99.5 359.531 100.438C358.323 101.375 356.865 102.146 355.156 102.75C353.448 103.333 351.5 103.625 349.312 103.625ZM368.75 98.6562C368.75 97.3229 369.208 96.2083 370.125 95.3125C371.062 94.4167 372.302 93.9688 373.844 93.9688C375.385 93.9688 376.615 94.4167 377.531 95.3125C378.469 96.2083 378.938 97.3229 378.938 98.6562C378.938 99.9896 378.469 101.104 377.531 102C376.615 102.896 375.385 103.344 373.844 103.344C372.302 103.344 371.062 102.896 370.125 102C369.208 101.104 368.75 99.9896 368.75 98.6562Z" fill="white"/>
<rect x="34" y="112" width="116" height="7" rx="3.5" fill="#6C63FF"/>
<defs>
<clipPath id="clip0_78_77">
<rect width="418" height="382" fill="white" transform="translate(128 218)"/>
</clipPath>
</defs>
</svg>
