<svg width="546" height="600" viewBox="0 0 546 600" fill="none" xmlns="http://www.w3.org/2000/svg">
<rect width="546" height="600" rx="30" fill="#3930AF"/>
<mask id="mask0_77_74" style="mask-type:alpha" maskUnits="userSpaceOnUse" x="0" y="0" width="546" height="600">
<rect width="546" height="600" rx="30" fill="#3930AF"/>
</mask>
<g mask="url(#mask0_77_74)">
<path d="M92.5 218C203.785 218 294 133.83 294 30C294 -73.8295 203.785 -158 92.5 -158C-18.7854 -158 -109 -73.8295 -109 30C-109 133.83 -18.7854 218 92.5 218Z" fill="#DE7682"/>
</g>
<g clip-path="url(#clip0_77_74)">
<path d="M395.803 523.066L399.82 532.056C396.555 531.537 393.518 534.321 393.45 537.895C393.382 541.47 396.294 545.188 399.559 545.696C398.935 548.472 396.242 549.695 393.905 550.817C391.567 551.938 389.048 553.799 389.222 556.756C389.362 559.13 391.329 561.226 393.418 562.069C395.506 562.912 397.698 562.783 399.814 562.641C396.608 565.988 396.295 572.28 399.111 576.794C401.926 581.308 407.549 583.53 411.759 581.793C408.784 585.486 409.43 592.25 413.122 596.062C416.843 599.905 422.237 600.276 426.952 599.872C438.959 598.858 450.399 594.333 459.842 586.861C463.447 584.002 466.813 580.64 468.87 576.254C470.926 571.868 471.532 566.315 469.616 561.324C470.133 567.577 476.402 572.515 482.042 572.791C487.682 573.067 492.606 569.896 496.791 566.28C502.356 561.472 507.508 554.731 506.744 546.415C506.366 542.297 504.564 538.338 502.797 534.502L499.372 527.066C497.989 524.064 496.574 521.011 494.493 518.492C492.411 515.973 489.522 514.023 486.631 514.041C487.292 511.027 487.956 507.9 487.402 504.697C486.848 501.494 484.727 498.177 481.842 497.427C478.17 496.473 475.058 499.855 471.366 499.536C467.813 499.229 464.877 495.67 461.426 494.259C460.006 493.646 458.437 493.46 456.912 493.723C455.387 493.986 453.972 494.688 452.84 495.742C450.653 497.873 449.741 501.474 450.526 504.881C451.213 507.866 453.043 510.499 454.154 513.377C455.264 516.256 455.437 519.957 453.304 521.529C450.73 523.426 446.812 520.845 444.801 517.722C442.791 514.599 441.636 510.817 439.093 508.191C436.092 505.091 431.394 504.364 428.304 506.522C425.214 508.68 424.032 513.513 425.59 517.621C426.864 520.979 429.782 524.377 428.77 527.54C427.7 530.883 423.02 530.459 420.197 528.097C417.374 525.735 415.5 522.176 412.711 519.761C409.879 517.308 406.181 516.233 402.934 516.919C401.287 517.301 399.763 518.09 398.503 519.214C397.242 520.339 396.285 521.762 395.721 523.353" fill="#E6E6E6"/>
<path d="M460.835 497.803L452.501 501.668C451.248 502.285 449.827 502.477 448.455 502.212C447.245 501.927 446.428 501.188 446.213 500.186L444.274 491.145C443.907 489.439 445.323 487.421 447.638 486.347L452.241 484.213C454.556 483.139 457.014 483.361 458.084 484.74L463.755 492.05C464.384 492.861 464.422 493.961 463.861 495.068C463.178 496.285 462.116 497.245 460.835 497.803Z" fill="#3F3D56"/>
<path d="M202.408 330.704C210.243 309.299 222.471 289.762 238.307 273.346C251.743 259.424 272.653 260.003 272.653 260.003L272.773 259.855C277.805 253.66 284.559 249.086 292.185 246.708C299.812 244.33 307.973 244.253 315.643 246.487C317.637 247.058 319.17 247.311 319.9 247.057C333.197 242.411 332.572 231.926 344.045 223.48C364.132 208.69 430.761 225.631 440.156 252.846C447.77 274.902 481.76 285.593 494.459 302.464C496.445 305.102 498.393 307.771 500.304 310.47C501.2 311.724 502.086 312.988 502.962 314.261C511.959 327.266 520.03 340.886 527.116 355.02C531.763 364.254 535.801 373.781 539.206 383.54C552.449 422.184 547.921 450.976 511.404 443.863C507.082 443.019 502.863 442.263 498.748 441.597C492.789 440.626 487.038 439.829 481.495 439.204C474.031 438.357 466.93 437.801 460.191 437.538C457.926 437.447 455.701 437.386 453.519 437.355C421.247 436.909 397.31 442.971 379.074 452.383C375.982 453.974 373.053 455.658 370.285 457.433C366.058 460.13 362.022 463.115 358.205 466.366C352.923 470.89 348.053 475.871 343.65 481.252L343.408 481.548C322.079 507.59 315.059 536.421 300.222 541.497C236.798 563.2 196.685 484.526 192.571 407.565C192.363 403.687 192.249 399.82 192.227 395.964C192.214 394.24 192.223 392.521 192.252 390.807C192.317 386.334 192.515 381.891 192.846 377.501C192.969 375.822 193.113 374.152 193.276 372.492C193.455 370.701 193.651 368.921 193.877 367.152C195.49 354.184 198.313 341.847 202.408 330.704Z" fill="#6C63FF"/>
<path d="M398.992 373.048C393.926 375.401 393.843 385.945 395.431 389.361L398.31 395.545L416.657 387.036L413.778 380.852C412.187 377.438 404.061 370.702 398.992 373.048Z" fill="#3F3D56"/>
<path d="M349.688 461.827C349.365 461.827 349.047 461.749 348.761 461.6C348.475 461.451 348.229 461.235 348.044 460.971C347.859 460.707 347.74 460.403 347.698 460.083C347.656 459.764 347.692 459.439 347.803 459.136C347.893 458.889 348.031 458.662 348.209 458.468C348.388 458.274 348.603 458.118 348.842 458.008L443.591 414.066C443.83 413.956 444.089 413.893 444.352 413.882C444.615 413.871 444.878 413.911 445.125 414.001C445.373 414.092 445.6 414.23 445.794 414.408C445.988 414.585 446.145 414.8 446.256 415.038C446.479 415.52 446.502 416.07 446.32 416.569C446.137 417.067 445.764 417.473 445.282 417.698H445.282L350.532 461.639C350.268 461.762 349.98 461.826 349.688 461.827Z" fill="#3F3D56"/>
<path d="M423.804 390.98L396.72 403.54L439.205 494.815L466.289 482.254L423.804 390.98Z" fill="#E6E6E6"/>
<path d="M322.133 276.08C317.068 278.434 316.985 288.977 318.573 292.393L321.451 298.577L339.798 290.068L336.92 283.885C335.329 280.47 327.202 273.734 322.133 276.08Z" fill="#3F3D56"/>
<path d="M435.624 508.295L427.29 512.161C426.037 512.778 424.616 512.969 423.244 512.705C422.035 512.419 421.217 511.681 421.002 510.678L419.063 501.637C418.697 499.932 420.112 497.914 422.427 496.84L427.03 494.706C429.346 493.632 431.803 493.854 432.873 495.233L438.545 502.543C439.174 503.353 439.212 504.453 438.65 505.56C437.968 506.777 436.905 507.738 435.624 508.295Z" fill="#3F3D56"/>
<path d="M410.001 520.985L401.666 524.85C400.414 525.468 398.993 525.659 397.621 525.394C396.411 525.109 395.593 524.37 395.378 523.368L393.439 514.327C393.073 512.621 394.488 510.603 396.804 509.53L401.406 507.395C403.722 506.321 406.18 506.543 407.249 507.922L412.921 515.232C413.55 516.043 413.588 517.143 413.026 518.25C412.344 519.467 411.281 520.428 410.001 520.985Z" fill="#3F3D56"/>
<path d="M354.172 309.538L327.088 322.098L412.967 506.6L440.051 494.039L354.172 309.538Z" fill="#E6E6E6"/>
<path d="M382.274 404.648L379.235 397.973L380.984 397.167L384.014 403.821L427.886 500.918L426.139 501.729" fill="#3F3D56"/>
<path d="M416.551 399.1L413.512 392.425L415.261 391.62L418.291 398.273L462.163 495.37L460.415 496.181" fill="#3F3D56"/>
<path d="M366.956 324.303L330.258 341.322C327.922 337.694 320.879 319.101 322.46 313.585L321.273 308.324L346.612 296.573L350.003 300.738C355.038 302.28 364.839 319.743 366.956 324.303Z" fill="#E6E6E6"/>
<path d="M347.671 296.798L321.523 308.925C320.557 309.372 319.53 309.208 319.227 308.557C319.183 308.463 319.156 308.363 319.147 308.26L317.794 293.849C317.736 293.232 318.265 292.533 319.073 292.158L336.413 284.116C337.222 283.741 338.098 283.789 338.533 284.231L348.694 294.557C349.213 295.085 348.931 295.989 348.063 296.576C347.939 296.661 347.807 296.735 347.671 296.798Z" fill="#E6E6E6"/>
<path d="M368.179 409.7C367.896 409.701 367.614 409.668 367.339 409.601C366.951 409.521 366.587 409.353 366.274 409.111C365.961 408.868 365.708 408.558 365.534 408.202L349.548 373.858C348.887 372.436 349.775 370.617 351.528 369.804L374.936 358.948C376.69 358.135 378.655 358.63 379.317 360.052L395.303 394.397C395.463 394.759 395.537 395.152 395.521 395.547C395.505 395.942 395.399 396.328 395.21 396.676C394.799 397.463 394.134 398.088 393.323 398.45L369.915 409.306C369.372 409.562 368.78 409.696 368.179 409.7Z" fill="#3F3D56"/>
<path d="M371.381 414.899L344.297 427.459L386.782 518.734L413.866 506.174L371.381 414.899Z" fill="#E6E6E6"/>
<path d="M338.014 298.304L330.071 301.987C328.539 302.698 326.471 301.514 325.463 299.347C324.454 297.181 324.881 294.84 326.414 294.129L334.356 290.446C335.889 289.735 337.957 290.919 338.965 293.086C339.973 295.252 339.547 297.593 338.014 298.304Z" fill="#3F3D56"/>
<path d="M347.097 396.721C342.032 399.075 341.949 409.619 343.537 413.035L346.415 419.219L364.762 410.71L361.884 404.526C360.293 401.111 352.166 394.375 347.097 396.721Z" fill="#3F3D56"/>
<path d="M262.958 375.676C261.169 376.866 259.339 374.034 261.162 372.897C262.951 371.707 264.781 374.539 262.958 375.676Z" fill="#E6E6E6"/>
<path d="M449.165 334.989C447.376 336.179 445.545 333.347 447.368 332.21C449.157 331.02 450.988 333.852 449.165 334.989Z" fill="#E6E6E6"/>
<path d="M322.248 367.354C320.459 368.543 318.628 365.712 320.451 364.575C322.24 363.385 324.071 366.217 322.248 367.354Z" fill="#E6E6E6"/>
<path d="M262.958 478.318C261.169 479.508 259.339 476.677 261.162 475.54C262.951 474.35 264.781 477.182 262.958 478.318Z" fill="#E6E6E6"/>
<path d="M354.209 246.679C352.42 247.869 350.589 245.037 352.412 243.9C354.201 242.71 356.032 245.542 354.209 246.679Z" fill="#E6E6E6"/>
<path d="M266.201 301.237C264.412 302.427 262.581 299.595 264.404 298.458C266.193 297.268 268.024 300.1 266.201 301.237Z" fill="#E6E6E6"/>
<path d="M392.783 285.596L391.645 285.347L391.894 284.21L391.135 284.044L390.886 285.181L389.748 284.932L389.581 285.689L390.719 285.939L390.47 287.075L391.229 287.241L391.479 286.104L392.617 286.353L392.783 285.596Z" fill="#E6E6E6"/>
<path d="M207.458 380.276L206.32 380.027L206.569 378.891L205.811 378.725L205.561 379.861L204.422 379.612L204.256 380.37L205.395 380.619L205.145 381.755L205.904 381.921L206.154 380.785L207.292 381.034L207.458 380.276Z" fill="#E6E6E6"/>
<path d="M440.859 428.573C439.912 429.01 438.829 429.056 437.849 428.698C436.868 428.34 436.07 427.609 435.629 426.664L430.945 416.601C430.507 415.656 430.462 414.576 430.821 413.598C431.179 412.62 431.913 411.824 432.859 411.385C433.805 410.947 434.887 410.901 435.867 411.258C436.847 411.615 437.645 412.345 438.086 413.289L442.77 423.353C443.209 424.298 443.254 425.378 442.896 426.357C442.537 427.336 441.805 428.132 440.859 428.573Z" fill="#3F3D56"/>
<path d="M361.188 465.561C360.241 465.999 359.159 466.044 358.178 465.687C357.198 465.329 356.4 464.598 355.959 463.653L351.275 453.59C350.836 452.645 350.791 451.565 351.15 450.587C351.509 449.609 352.242 448.813 353.188 448.374C354.135 447.935 355.217 447.889 356.197 448.246C357.177 448.603 357.975 449.334 358.416 450.278L363.1 460.341C363.539 461.287 363.584 462.367 363.225 463.346C362.867 464.324 362.134 465.121 361.188 465.561Z" fill="#3F3D56"/>
<path d="M433.643 406.586L402.235 421.152C400.236 418.046 394.208 402.134 395.561 397.413L396.225 392.131L414.979 382.947L419.134 386.417C424.989 384.441 433.595 398.923 433.643 406.586Z" fill="#E6E6E6"/>
<path d="M419.061 405.576L411.119 409.259C409.586 409.97 407.254 408.218 405.921 405.353C404.588 402.489 404.75 399.58 406.283 398.869L414.225 395.186C415.758 394.475 418.09 396.228 419.423 399.092C420.756 401.956 420.594 404.865 419.061 405.576Z" fill="#3F3D56"/>
<path d="M351.703 424.529L348.664 417.854L350.413 417.049L353.443 423.703L397.315 520.8L395.567 521.61" fill="#3F3D56"/>
<path d="M381.749 430.26L350.341 444.825C345.707 442.437 338.626 426.812 343.667 421.086L344.331 415.805L363.084 406.621L367.24 410.091C371.549 411.411 379.937 426.357 381.749 430.26Z" fill="#E6E6E6"/>
<path d="M366.521 427.861L358.578 431.545C357.046 432.255 354.858 430.815 353.704 428.333C352.549 425.852 352.856 423.254 354.389 422.544L362.331 418.86C363.864 418.149 366.051 419.59 367.206 422.071C368.361 424.553 368.053 427.15 366.521 427.861Z" fill="#3F3D56"/>
<path d="M207.342 360.333C233.691 360.333 255.052 339.012 255.052 312.711C255.052 286.41 233.691 265.088 207.342 265.088C180.993 265.088 159.633 286.41 159.633 312.711C159.633 339.012 180.993 360.333 207.342 360.333Z" fill="#DE7682"/>
<path opacity="0.3" d="M402.958 362.312L431.951 277.789L400.115 361.3C399.957 361.498 399.849 361.731 399.8 361.979C399.751 362.227 399.762 362.483 399.831 362.727C399.901 362.97 400.028 363.193 400.201 363.377C400.375 363.562 400.59 363.702 400.829 363.787C401.067 363.872 401.323 363.899 401.574 363.866C401.825 363.832 402.065 363.74 402.273 363.595C402.481 363.451 402.652 363.259 402.771 363.036C402.89 362.813 402.954 362.564 402.958 362.312H402.958Z" fill="#F0F0F0"/>
<path d="M476.863 311.931C471.188 313.814 464.896 315.663 457.987 317.48C422.254 326.871 374.357 334.196 323.119 338.107C271.882 342.017 223.426 342.046 186.678 338.187C168.776 336.307 154.617 333.604 144.594 330.151C133.983 326.496 128.407 322.091 128.021 317.06C127.27 307.258 146.648 298.631 163.035 293.12L163.479 294.435C140.974 302.003 128.874 310 129.407 316.954C130.085 325.811 151.013 333.047 186.823 336.808C223.491 340.658 271.857 340.628 323.014 336.724C374.169 332.819 421.978 325.508 457.633 316.138C492.454 306.988 512.037 296.66 511.358 287.803C510.795 280.449 496.273 274.158 470.468 270.089L470.685 268.719C489.435 271.676 511.952 277.369 512.744 287.697C513.129 292.728 508.289 297.928 498.357 303.151C492.696 306.128 485.503 309.065 476.863 311.931Z" fill="#3F3D56"/>
<path d="M490.882 396.394C493.62 396.394 495.84 394.179 495.84 391.446C495.84 388.713 493.62 386.498 490.882 386.498C488.145 386.498 485.925 388.713 485.925 391.446C485.925 394.179 488.145 396.394 490.882 396.394Z" fill="#DE7682"/>
<path d="M522.38 530.477C525.118 530.477 527.337 528.261 527.337 525.528C527.337 522.795 525.118 520.58 522.38 520.58C519.642 520.58 517.423 522.795 517.423 525.528C517.423 528.261 519.642 530.477 522.38 530.477Z" fill="#F2F2F2"/>
<path d="M353.312 560.605C358.65 560.605 362.977 556.286 362.977 550.958C362.977 545.629 358.65 541.31 353.312 541.31C347.974 541.31 343.647 545.629 343.647 550.958C343.647 556.286 347.974 560.605 353.312 560.605Z" fill="#F2F2F2"/>
<path d="M279.663 432.92C282.401 432.92 284.621 430.705 284.621 427.972C284.621 425.239 282.401 423.023 279.663 423.023C276.925 423.023 274.706 425.239 274.706 427.972C274.706 430.705 276.925 432.92 279.663 432.92Z" fill="#3F3D56"/>
<path d="M446.323 439.36L467.712 444.887L480.83 470.607L458.652 471.475L446.323 439.36Z" fill="#E6E6E6"/>
<path d="M396.955 402.282L408.726 414.039L438.625 478.563L433.12 483.31L396.955 402.282Z" fill="#CCCCCC"/>
<path d="M371.359 412.939L372.282 429.536L400.502 494.808L407.717 493.881L371.359 412.939Z" fill="#CCCCCC"/>
<path d="M370.588 479.987L359.069 498.806L367.561 526.394L384.103 511.623L370.588 479.987Z" fill="#E6E6E6"/>
<path d="M472.345 491.55C466.364 491.55 459.809 491.325 452.679 490.873C415.802 488.536 368.035 480.409 318.177 467.991C268.319 455.572 222.327 440.345 188.673 425.114C172.279 417.695 159.697 410.672 151.276 404.24C142.361 397.431 138.462 391.496 139.685 386.6C142.07 377.062 163.184 374.976 180.477 374.905L180.482 376.292C156.735 376.389 142.725 380.169 141.034 386.936C138.879 395.554 156.452 409.009 189.247 423.851C222.827 439.048 268.734 454.246 318.514 466.645C368.292 479.044 415.971 487.157 452.767 489.489C488.702 491.767 510.548 488.131 512.703 479.512C514.492 472.357 502.698 461.816 479.496 449.83L480.135 448.598C496.994 457.307 516.564 469.798 514.051 479.848C512.827 484.744 506.591 488.154 495.516 489.984C489.203 491.027 481.449 491.55 472.345 491.55Z" fill="#3F3D56"/>
</g>
<path d="M64.4375 87.9062H73.7812C73.5938 90.9688 72.75 93.6875 71.25 96.0625C69.7708 98.4375 67.6979 100.292 65.0312 101.625C62.3854 102.958 59.1979 103.625 55.4688 103.625C52.5521 103.625 49.9375 103.125 47.625 102.125C45.3125 101.104 43.3333 99.6458 41.6875 97.75C40.0625 95.8542 38.8229 93.5625 37.9688 90.875C37.1146 88.1875 36.6875 85.1771 36.6875 81.8438V78.6875C36.6875 75.3542 37.125 72.3438 38 69.6562C38.8958 66.9479 40.1667 64.6458 41.8125 62.75C43.4792 60.8542 45.4688 59.3958 47.7812 58.375C50.0938 57.3542 52.6771 56.8438 55.5312 56.8438C59.3229 56.8438 62.5208 57.5312 65.125 58.9062C67.75 60.2812 69.7812 62.1771 71.2188 64.5938C72.6771 67.0104 73.5521 69.7604 73.8438 72.8438H64.4688C64.3646 71.0104 64 69.4583 63.375 68.1875C62.75 66.8958 61.8021 65.9271 60.5312 65.2812C59.2812 64.6146 57.6146 64.2812 55.5312 64.2812C53.9688 64.2812 52.6042 64.5729 51.4375 65.1562C50.2708 65.7396 49.2917 66.625 48.5 67.8125C47.7083 69 47.1146 70.5 46.7188 72.3125C46.3438 74.1042 46.1562 76.2083 46.1562 78.625V81.8438C46.1562 84.1979 46.3333 86.2708 46.6875 88.0625C47.0417 89.8333 47.5833 91.3333 48.3125 92.5625C49.0625 93.7708 50.0208 94.6875 51.1875 95.3125C52.375 95.9167 53.8021 96.2188 55.4688 96.2188C57.4271 96.2188 59.0417 95.9062 60.3125 95.2812C61.5833 94.6562 62.5521 93.7292 63.2188 92.5C63.9062 91.2708 64.3125 89.7396 64.4375 87.9062ZM77.9375 86.4375V85.7812C77.9375 83.3021 78.2917 81.0208 79 78.9375C79.7083 76.8333 80.7396 75.0104 82.0938 73.4688C83.4479 71.9271 85.1146 70.7292 87.0938 69.875C89.0729 69 91.3438 68.5625 93.9062 68.5625C96.4688 68.5625 98.75 69 100.75 69.875C102.75 70.7292 104.427 71.9271 105.781 73.4688C107.156 75.0104 108.198 76.8333 108.906 78.9375C109.615 81.0208 109.969 83.3021 109.969 85.7812V86.4375C109.969 88.8958 109.615 91.1771 108.906 93.2812C108.198 95.3646 107.156 97.1875 105.781 98.75C104.427 100.292 102.76 101.49 100.781 102.344C98.8021 103.198 96.5312 103.625 93.9688 103.625C91.4062 103.625 89.125 103.198 87.125 102.344C85.1458 101.49 83.4688 100.292 82.0938 98.75C80.7396 97.1875 79.7083 95.3646 79 93.2812C78.2917 91.1771 77.9375 88.8958 77.9375 86.4375ZM86.9375 85.7812V86.4375C86.9375 87.8542 87.0625 89.1771 87.3125 90.4062C87.5625 91.6354 87.9583 92.7188 88.5 93.6562C89.0625 94.5729 89.7917 95.2917 90.6875 95.8125C91.5833 96.3333 92.6771 96.5938 93.9688 96.5938C95.2188 96.5938 96.2917 96.3333 97.1875 95.8125C98.0833 95.2917 98.8021 94.5729 99.3438 93.6562C99.8854 92.7188 100.281 91.6354 100.531 90.4062C100.802 89.1771 100.938 87.8542 100.938 86.4375V85.7812C100.938 84.4062 100.802 83.1146 100.531 81.9062C100.281 80.6771 99.875 79.5938 99.3125 78.6562C98.7708 77.6979 98.0521 76.9479 97.1562 76.4062C96.2604 75.8646 95.1771 75.5938 93.9062 75.5938C92.6354 75.5938 91.5521 75.8646 90.6562 76.4062C89.7812 76.9479 89.0625 77.6979 88.5 78.6562C87.9583 79.5938 87.5625 80.6771 87.3125 81.9062C87.0625 83.1146 86.9375 84.4062 86.9375 85.7812ZM124.312 76.4062V103H115.312V69.1875H123.75L124.312 76.4062ZM123 84.9062H120.562C120.562 82.4062 120.885 80.1562 121.531 78.1562C122.177 76.1354 123.083 74.4167 124.25 73C125.417 71.5625 126.802 70.4688 128.406 69.7188C130.031 68.9479 131.844 68.5625 133.844 68.5625C135.427 68.5625 136.875 68.7917 138.188 69.25C139.5 69.7083 140.625 70.4375 141.562 71.4375C142.521 72.4375 143.25 73.7604 143.75 75.4062C144.271 77.0521 144.531 79.0625 144.531 81.4375V103H135.469V81.4062C135.469 79.9062 135.26 78.7396 134.844 77.9062C134.427 77.0729 133.812 76.4896 133 76.1562C132.208 75.8021 131.229 75.625 130.062 75.625C128.854 75.625 127.802 75.8646 126.906 76.3438C126.031 76.8229 125.302 77.4896 124.719 78.3438C124.156 79.1771 123.729 80.1562 123.438 81.2812C123.146 82.4062 123 83.6146 123 84.9062ZM167.938 69.1875V75.5625H148.25V69.1875H167.938ZM153.125 60.8438H162.125V92.8125C162.125 93.7917 162.25 94.5417 162.5 95.0625C162.771 95.5833 163.167 95.9479 163.688 96.1562C164.208 96.3438 164.865 96.4375 165.656 96.4375C166.219 96.4375 166.719 96.4167 167.156 96.375C167.615 96.3125 168 96.25 168.312 96.1875L168.344 102.812C167.573 103.062 166.74 103.26 165.844 103.406C164.948 103.552 163.958 103.625 162.875 103.625C160.896 103.625 159.167 103.302 157.688 102.656C156.229 101.99 155.104 100.927 154.312 99.4688C153.521 98.0104 153.125 96.0938 153.125 93.7188V60.8438ZM191.312 95.375V80.3125C191.312 79.2292 191.135 78.3021 190.781 77.5312C190.427 76.7396 189.875 76.125 189.125 75.6875C188.396 75.25 187.448 75.0312 186.281 75.0312C185.281 75.0312 184.417 75.2083 183.688 75.5625C182.958 75.8958 182.396 76.3854 182 77.0312C181.604 77.6562 181.406 78.3958 181.406 79.25H172.406C172.406 77.8125 172.74 76.4479 173.406 75.1562C174.073 73.8646 175.042 72.7292 176.312 71.75C177.583 70.75 179.094 69.9688 180.844 69.4062C182.615 68.8438 184.594 68.5625 186.781 68.5625C189.406 68.5625 191.74 69 193.781 69.875C195.823 70.75 197.427 72.0625 198.594 73.8125C199.781 75.5625 200.375 77.75 200.375 80.375V94.8438C200.375 96.6979 200.49 98.2188 200.719 99.4062C200.948 100.573 201.281 101.594 201.719 102.469V103H192.625C192.188 102.083 191.854 100.938 191.625 99.5625C191.417 98.1667 191.312 96.7708 191.312 95.375ZM192.5 82.4062L192.562 87.5H187.531C186.344 87.5 185.312 87.6354 184.438 87.9062C183.562 88.1771 182.844 88.5625 182.281 89.0625C181.719 89.5417 181.302 90.1042 181.031 90.75C180.781 91.3958 180.656 92.1042 180.656 92.875C180.656 93.6458 180.833 94.3438 181.188 94.9688C181.542 95.5729 182.052 96.0521 182.719 96.4062C183.385 96.7396 184.167 96.9062 185.062 96.9062C186.417 96.9062 187.594 96.6354 188.594 96.0938C189.594 95.5521 190.365 94.8854 190.906 94.0938C191.469 93.3021 191.76 92.5521 191.781 91.8438L194.156 95.6562C193.823 96.5104 193.365 97.3958 192.781 98.3125C192.219 99.2292 191.5 100.094 190.625 100.906C189.75 101.698 188.698 102.354 187.469 102.875C186.24 103.375 184.781 103.625 183.094 103.625C180.948 103.625 179 103.198 177.25 102.344C175.521 101.469 174.146 100.271 173.125 98.75C172.125 97.2083 171.625 95.4583 171.625 93.5C171.625 91.7292 171.958 90.1562 172.625 88.7812C173.292 87.4062 174.271 86.25 175.562 85.3125C176.875 84.3542 178.51 83.6354 180.469 83.1562C182.427 82.6562 184.698 82.4062 187.281 82.4062H192.5ZM221.281 96.5938C222.385 96.5938 223.365 96.3854 224.219 95.9688C225.073 95.5312 225.74 94.9271 226.219 94.1562C226.719 93.3646 226.979 92.4375 227 91.375H235.469C235.448 93.75 234.812 95.8646 233.562 97.7188C232.312 99.5521 230.635 101 228.531 102.062C226.427 103.104 224.073 103.625 221.469 103.625C218.844 103.625 216.552 103.188 214.594 102.312C212.656 101.438 211.042 100.229 209.75 98.6875C208.458 97.125 207.49 95.3125 206.844 93.25C206.198 91.1667 205.875 88.9375 205.875 86.5625V85.6562C205.875 83.2604 206.198 81.0312 206.844 78.9688C207.49 76.8854 208.458 75.0729 209.75 73.5312C211.042 71.9688 212.656 70.75 214.594 69.875C216.531 69 218.802 68.5625 221.406 68.5625C224.177 68.5625 226.604 69.0938 228.688 70.1562C230.792 71.2188 232.438 72.7396 233.625 74.7188C234.833 76.6771 235.448 79 235.469 81.6875H227C226.979 80.5625 226.74 79.5417 226.281 78.625C225.844 77.7083 225.198 76.9792 224.344 76.4375C223.51 75.875 222.479 75.5938 221.25 75.5938C219.938 75.5938 218.865 75.875 218.031 76.4375C217.198 76.9792 216.552 77.7292 216.094 78.6875C215.635 79.625 215.312 80.6979 215.125 81.9062C214.958 83.0938 214.875 84.3438 214.875 85.6562V86.5625C214.875 87.875 214.958 89.1354 215.125 90.3438C215.292 91.5521 215.604 92.625 216.062 93.5625C216.542 94.5 217.198 95.2396 218.031 95.7812C218.865 96.3229 219.948 96.5938 221.281 96.5938ZM257.25 69.1875V75.5625H237.562V69.1875H257.25ZM242.438 60.8438H251.438V92.8125C251.438 93.7917 251.562 94.5417 251.812 95.0625C252.083 95.5833 252.479 95.9479 253 96.1562C253.521 96.3438 254.177 96.4375 254.969 96.4375C255.531 96.4375 256.031 96.4167 256.469 96.375C256.927 96.3125 257.312 96.25 257.625 96.1875L257.656 102.812C256.885 103.062 256.052 103.26 255.156 103.406C254.26 103.552 253.271 103.625 252.188 103.625C250.208 103.625 248.479 103.302 247 102.656C245.542 101.99 244.417 100.927 243.625 99.4688C242.833 98.0104 242.438 96.0938 242.438 93.7188V60.8438ZM287.312 76.1875V103H278.281V69.1875H286.75L287.312 76.1875ZM286.062 84.9062H283.562C283.562 82.5521 283.844 80.3854 284.406 78.4062C284.99 76.4062 285.833 74.6771 286.938 73.2188C288.062 71.7396 289.448 70.5938 291.094 69.7812C292.74 68.9688 294.646 68.5625 296.812 68.5625C298.312 68.5625 299.688 68.7917 300.938 69.25C302.188 69.6875 303.26 70.3854 304.156 71.3438C305.073 72.2812 305.781 73.5104 306.281 75.0312C306.781 76.5312 307.031 78.3333 307.031 80.4375V103H298.031V81.4375C298.031 79.8958 297.823 78.7083 297.406 77.875C296.99 77.0417 296.396 76.4583 295.625 76.125C294.875 75.7917 293.969 75.625 292.906 75.625C291.74 75.625 290.719 75.8646 289.844 76.3438C288.99 76.8229 288.281 77.4896 287.719 78.3438C287.156 79.1771 286.74 80.1562 286.469 81.2812C286.198 82.4062 286.062 83.6146 286.062 84.9062ZM306.188 83.875L302.969 84.2812C302.969 82.0729 303.24 80.0208 303.781 78.125C304.344 76.2292 305.167 74.5625 306.25 73.125C307.354 71.6875 308.719 70.5729 310.344 69.7812C311.969 68.9688 313.844 68.5625 315.969 68.5625C317.594 68.5625 319.073 68.8021 320.406 69.2812C321.74 69.7396 322.875 70.4792 323.812 71.5C324.771 72.5 325.5 73.8125 326 75.4375C326.521 77.0625 326.781 79.0521 326.781 81.4062V103H317.75V81.4062C317.75 79.8438 317.542 78.6562 317.125 77.8438C316.729 77.0104 316.146 76.4375 315.375 76.125C314.625 75.7917 313.729 75.625 312.688 75.625C311.604 75.625 310.656 75.8438 309.844 76.2812C309.031 76.6979 308.354 77.2812 307.812 78.0312C307.271 78.7812 306.865 79.6562 306.594 80.6562C306.323 81.6354 306.188 82.7083 306.188 83.875ZM349.312 103.625C346.688 103.625 344.333 103.208 342.25 102.375C340.167 101.521 338.396 100.344 336.938 98.8438C335.5 97.3438 334.396 95.6042 333.625 93.625C332.854 91.625 332.469 89.5 332.469 87.25V86C332.469 83.4375 332.833 81.0938 333.562 78.9688C334.292 76.8438 335.333 75 336.688 73.4375C338.062 71.875 339.729 70.6771 341.688 69.8438C343.646 68.9896 345.854 68.5625 348.312 68.5625C350.708 68.5625 352.833 68.9583 354.688 69.75C356.542 70.5417 358.094 71.6667 359.344 73.125C360.615 74.5833 361.573 76.3333 362.219 78.375C362.865 80.3958 363.188 82.6458 363.188 85.125V88.875H336.312V82.875H354.344V82.1875C354.344 80.9375 354.115 79.8229 353.656 78.8438C353.219 77.8438 352.552 77.0521 351.656 76.4688C350.76 75.8854 349.615 75.5938 348.219 75.5938C347.031 75.5938 346.01 75.8542 345.156 76.375C344.302 76.8958 343.604 77.625 343.062 78.5625C342.542 79.5 342.146 80.6042 341.875 81.875C341.625 83.125 341.5 84.5 341.5 86V87.25C341.5 88.6042 341.688 89.8542 342.062 91C342.458 92.1458 343.01 93.1354 343.719 93.9688C344.448 94.8021 345.323 95.4479 346.344 95.9062C347.385 96.3646 348.562 96.5938 349.875 96.5938C351.5 96.5938 353.01 96.2812 354.406 95.6562C355.823 95.0104 357.042 94.0417 358.062 92.75L362.438 97.5C361.729 98.5208 360.76 99.5 359.531 100.438C358.323 101.375 356.865 102.146 355.156 102.75C353.448 103.333 351.5 103.625 349.312 103.625ZM368.75 98.6562C368.75 97.3229 369.208 96.2083 370.125 95.3125C371.062 94.4167 372.302 93.9688 373.844 93.9688C375.385 93.9688 376.615 94.4167 377.531 95.3125C378.469 96.2083 378.938 97.3229 378.938 98.6562C378.938 99.9896 378.469 101.104 377.531 102C376.615 102.896 375.385 103.344 373.844 103.344C372.302 103.344 371.062 102.896 370.125 102C369.208 101.104 368.75 99.9896 368.75 98.6562Z" fill="white"/>
<rect x="34" y="112" width="116" height="7" rx="3.5" fill="#6C63FF"/>
<path d="M93.7656 173.422V175.188H78.1719V173.422H93.7656ZM86.8438 166.156V182.719H84.9688V166.156H86.8438ZM101.375 172.594H103.281C104.448 172.594 105.422 172.396 106.203 172C106.995 171.594 107.589 171.057 107.984 170.391C108.391 169.724 108.594 168.984 108.594 168.172C108.594 167.255 108.422 166.453 108.078 165.766C107.734 165.068 107.208 164.526 106.5 164.141C105.802 163.745 104.906 163.547 103.812 163.547C102.854 163.547 102 163.734 101.25 164.109C100.5 164.484 99.9062 165.021 99.4688 165.719C99.0312 166.417 98.8125 167.25 98.8125 168.219H96.9531C96.9531 166.979 97.25 165.891 97.8438 164.953C98.4375 164.005 99.2552 163.266 100.297 162.734C101.339 162.203 102.51 161.938 103.812 161.938C105.156 161.938 106.323 162.182 107.312 162.672C108.312 163.161 109.083 163.875 109.625 164.812C110.177 165.75 110.453 166.891 110.453 168.234C110.453 168.922 110.302 169.599 110 170.266C109.708 170.932 109.271 171.536 108.688 172.078C108.104 172.609 107.38 173.036 106.516 173.359C105.651 173.682 104.646 173.844 103.5 173.844H101.375V172.594ZM101.375 174.203V172.969H103.5C104.802 172.969 105.917 173.12 106.844 173.422C107.771 173.714 108.531 174.13 109.125 174.672C109.729 175.203 110.172 175.823 110.453 176.531C110.734 177.24 110.875 178 110.875 178.812C110.875 179.854 110.703 180.776 110.359 181.578C110.016 182.38 109.526 183.062 108.891 183.625C108.266 184.177 107.526 184.599 106.672 184.891C105.828 185.172 104.901 185.312 103.891 185.312C102.974 185.312 102.078 185.177 101.203 184.906C100.339 184.635 99.5573 184.234 98.8594 183.703C98.1719 183.161 97.625 182.484 97.2188 181.672C96.8125 180.849 96.6094 179.901 96.6094 178.828H98.4688C98.4688 179.786 98.6979 180.635 99.1562 181.375C99.6146 182.104 100.25 182.677 101.062 183.094C101.885 183.5 102.828 183.703 103.891 183.703C104.964 183.703 105.88 183.521 106.641 183.156C107.411 182.781 108 182.234 108.406 181.516C108.812 180.797 109.016 179.917 109.016 178.875C109.016 177.781 108.771 176.891 108.281 176.203C107.802 175.516 107.13 175.01 106.266 174.688C105.411 174.365 104.417 174.203 103.281 174.203H101.375ZM123.656 162.156V185H121.797V164.516L115.609 166.812V165.047L123.344 162.156H123.656ZM154.234 171.672V175.5C154.234 177.167 154.078 178.62 153.766 179.859C153.453 181.089 152.995 182.109 152.391 182.922C151.797 183.724 151.068 184.323 150.203 184.719C149.349 185.115 148.37 185.312 147.266 185.312C146.391 185.312 145.589 185.188 144.859 184.938C144.13 184.688 143.479 184.307 142.906 183.797C142.344 183.276 141.865 182.625 141.469 181.844C141.073 181.062 140.771 180.146 140.562 179.094C140.354 178.031 140.25 176.833 140.25 175.5V171.672C140.25 169.995 140.406 168.547 140.719 167.328C141.042 166.109 141.5 165.099 142.094 164.297C142.698 163.495 143.432 162.901 144.297 162.516C145.161 162.12 146.141 161.922 147.234 161.922C148.109 161.922 148.911 162.052 149.641 162.312C150.38 162.562 151.031 162.938 151.594 163.438C152.167 163.938 152.646 164.578 153.031 165.359C153.427 166.13 153.724 167.042 153.922 168.094C154.13 169.146 154.234 170.339 154.234 171.672ZM152.375 175.719V171.438C152.375 170.406 152.302 169.469 152.156 168.625C152.021 167.781 151.818 167.042 151.547 166.406C151.276 165.771 150.932 165.24 150.516 164.812C150.109 164.385 149.63 164.068 149.078 163.859C148.536 163.641 147.922 163.531 147.234 163.531C146.391 163.531 145.646 163.703 145 164.047C144.365 164.38 143.833 164.88 143.406 165.547C142.979 166.203 142.656 167.026 142.438 168.016C142.229 169.005 142.125 170.146 142.125 171.438V175.719C142.125 176.74 142.193 177.672 142.328 178.516C142.464 179.349 142.672 180.089 142.953 180.734C143.234 181.38 143.578 181.927 143.984 182.375C144.401 182.812 144.88 183.146 145.422 183.375C145.974 183.594 146.589 183.703 147.266 183.703C148.13 183.703 148.88 183.531 149.516 183.188C150.151 182.833 150.682 182.318 151.109 181.641C151.536 180.953 151.854 180.115 152.062 179.125C152.271 178.125 152.375 176.99 152.375 175.719ZM169.031 162.078H169.297V163.719H169.031C167.594 163.719 166.312 163.953 165.188 164.422C164.073 164.891 163.13 165.568 162.359 166.453C161.599 167.328 161.021 168.391 160.625 169.641C160.229 170.891 160.031 172.292 160.031 173.844V176.984C160.031 178.036 160.172 178.979 160.453 179.812C160.734 180.635 161.125 181.339 161.625 181.922C162.125 182.505 162.708 182.948 163.375 183.25C164.042 183.552 164.76 183.703 165.531 183.703C166.292 183.703 166.974 183.547 167.578 183.234C168.182 182.922 168.693 182.484 169.109 181.922C169.536 181.359 169.859 180.714 170.078 179.984C170.307 179.245 170.422 178.453 170.422 177.609C170.422 176.807 170.318 176.052 170.109 175.344C169.911 174.625 169.604 173.99 169.188 173.438C168.771 172.885 168.25 172.453 167.625 172.141C167 171.828 166.266 171.672 165.422 171.672C164.464 171.672 163.568 171.891 162.734 172.328C161.901 172.766 161.219 173.349 160.688 174.078C160.167 174.807 159.891 175.604 159.859 176.469L158.781 176.453C158.854 175.474 159.078 174.594 159.453 173.812C159.828 173.021 160.323 172.349 160.938 171.797C161.562 171.234 162.276 170.807 163.078 170.516C163.891 170.214 164.766 170.062 165.703 170.062C166.797 170.062 167.75 170.26 168.562 170.656C169.385 171.052 170.068 171.599 170.609 172.297C171.161 172.984 171.573 173.781 171.844 174.688C172.125 175.583 172.266 176.531 172.266 177.531C172.266 178.625 172.109 179.646 171.797 180.594C171.495 181.531 171.047 182.354 170.453 183.062C169.87 183.771 169.161 184.323 168.328 184.719C167.505 185.115 166.573 185.312 165.531 185.312C164.385 185.312 163.359 185.094 162.453 184.656C161.547 184.219 160.771 183.615 160.125 182.844C159.49 182.073 159 181.188 158.656 180.188C158.323 179.177 158.156 178.099 158.156 176.953V174.953C158.156 173.016 158.38 171.26 158.828 169.688C159.276 168.104 159.948 166.745 160.844 165.609C161.75 164.474 162.88 163.604 164.234 163C165.599 162.385 167.198 162.078 169.031 162.078ZM186.578 173.75L185.109 173.328L186.219 162.25H197.594V164H187.812L187.016 171.656C187.411 171.375 187.984 171.099 188.734 170.828C189.495 170.547 190.349 170.406 191.297 170.406C192.307 170.406 193.224 170.578 194.047 170.922C194.88 171.255 195.594 171.745 196.188 172.391C196.781 173.026 197.24 173.797 197.562 174.703C197.885 175.599 198.047 176.615 198.047 177.75C198.047 178.844 197.911 179.849 197.641 180.766C197.37 181.682 196.958 182.484 196.406 183.172C195.854 183.849 195.151 184.375 194.297 184.75C193.443 185.125 192.427 185.312 191.25 185.312C190.344 185.312 189.49 185.188 188.688 184.938C187.896 184.677 187.188 184.286 186.562 183.766C185.938 183.245 185.427 182.589 185.031 181.797C184.646 181.005 184.406 180.078 184.312 179.016H186.109C186.234 180.036 186.51 180.896 186.938 181.594C187.365 182.292 187.938 182.818 188.656 183.172C189.385 183.526 190.25 183.703 191.25 183.703C192.062 183.703 192.771 183.573 193.375 183.312C193.99 183.052 194.5 182.672 194.906 182.172C195.323 181.661 195.635 181.042 195.844 180.312C196.062 179.573 196.172 178.729 196.172 177.781C196.172 176.969 196.057 176.224 195.828 175.547C195.599 174.859 195.26 174.26 194.812 173.75C194.375 173.229 193.833 172.828 193.188 172.547C192.542 172.266 191.802 172.125 190.969 172.125C189.885 172.125 189.021 172.271 188.375 172.562C187.74 172.854 187.141 173.25 186.578 173.75ZM215.578 178.969C215.578 180.344 215.255 181.505 214.609 182.453C213.974 183.401 213.109 184.115 212.016 184.594C210.922 185.073 209.698 185.312 208.344 185.312C206.979 185.312 205.75 185.073 204.656 184.594C203.562 184.115 202.693 183.401 202.047 182.453C201.411 181.505 201.094 180.344 201.094 178.969C201.094 178.062 201.271 177.24 201.625 176.5C201.99 175.75 202.495 175.104 203.141 174.562C203.797 174.01 204.562 173.583 205.438 173.281C206.312 172.979 207.271 172.828 208.312 172.828C209.688 172.828 210.922 173.094 212.016 173.625C213.109 174.146 213.974 174.865 214.609 175.781C215.255 176.698 215.578 177.76 215.578 178.969ZM213.703 178.969C213.703 178 213.469 177.151 213 176.422C212.531 175.693 211.891 175.13 211.078 174.734C210.266 174.328 209.344 174.125 208.312 174.125C207.271 174.125 206.349 174.328 205.547 174.734C204.745 175.13 204.115 175.693 203.656 176.422C203.198 177.151 202.969 178 202.969 178.969C202.969 179.979 203.193 180.839 203.641 181.547C204.099 182.255 204.734 182.792 205.547 183.156C206.359 183.521 207.292 183.703 208.344 183.703C209.396 183.703 210.323 183.521 211.125 183.156C211.927 182.792 212.557 182.255 213.016 181.547C213.474 180.839 213.703 179.979 213.703 178.969ZM214.984 168.094C214.984 169.208 214.688 170.203 214.094 171.078C213.51 171.943 212.719 172.625 211.719 173.125C210.719 173.615 209.589 173.859 208.328 173.859C207.057 173.859 205.917 173.615 204.906 173.125C203.906 172.625 203.115 171.943 202.531 171.078C201.958 170.203 201.672 169.208 201.672 168.094C201.672 166.771 201.958 165.656 202.531 164.75C203.115 163.833 203.906 163.135 204.906 162.656C205.906 162.177 207.042 161.938 208.312 161.938C209.573 161.938 210.703 162.177 211.703 162.656C212.714 163.135 213.51 163.833 214.094 164.75C214.688 165.656 214.984 166.771 214.984 168.094ZM213.125 168.078C213.125 167.193 212.911 166.411 212.484 165.734C212.068 165.057 211.495 164.526 210.766 164.141C210.047 163.745 209.229 163.547 208.312 163.547C207.385 163.547 206.562 163.729 205.844 164.094C205.135 164.458 204.573 164.979 204.156 165.656C203.75 166.333 203.547 167.141 203.547 168.078C203.547 168.995 203.75 169.786 204.156 170.453C204.573 171.109 205.141 171.62 205.859 171.984C206.578 172.349 207.401 172.531 208.328 172.531C209.255 172.531 210.078 172.349 210.797 171.984C211.516 171.62 212.083 171.109 212.5 170.453C212.917 169.786 213.125 168.995 213.125 168.078ZM221.906 183.531H222.312C223.969 183.531 225.354 183.292 226.469 182.812C227.583 182.323 228.474 181.651 229.141 180.797C229.818 179.932 230.302 178.922 230.594 177.766C230.885 176.609 231.031 175.354 231.031 174V170.828C231.031 169.63 230.901 168.578 230.641 167.672C230.38 166.766 230.01 166.01 229.531 165.406C229.052 164.792 228.484 164.328 227.828 164.016C227.182 163.703 226.464 163.547 225.672 163.547C224.891 163.547 224.182 163.714 223.547 164.047C222.922 164.38 222.391 164.844 221.953 165.438C221.526 166.021 221.193 166.693 220.953 167.453C220.724 168.203 220.609 169 220.609 169.844C220.609 170.615 220.714 171.365 220.922 172.094C221.141 172.812 221.458 173.464 221.875 174.047C222.292 174.62 222.802 175.078 223.406 175.422C224.021 175.755 224.729 175.922 225.531 175.922C226.438 175.922 227.24 175.75 227.938 175.406C228.646 175.062 229.245 174.62 229.734 174.078C230.234 173.526 230.615 172.932 230.875 172.297C231.146 171.651 231.292 171.026 231.312 170.422L232.25 170.406C232.25 171.354 232.073 172.26 231.719 173.125C231.375 173.979 230.885 174.74 230.25 175.406C229.625 176.062 228.891 176.583 228.047 176.969C227.203 177.354 226.292 177.547 225.312 177.547C224.25 177.547 223.307 177.339 222.484 176.922C221.672 176.495 220.99 175.922 220.438 175.203C219.896 174.474 219.484 173.656 219.203 172.75C218.922 171.844 218.781 170.901 218.781 169.922C218.781 168.828 218.932 167.802 219.234 166.844C219.547 165.875 220 165.026 220.594 164.297C221.188 163.557 221.906 162.979 222.75 162.562C223.604 162.146 224.568 161.938 225.641 161.938C226.859 161.938 227.922 162.161 228.828 162.609C229.734 163.047 230.484 163.672 231.078 164.484C231.682 165.297 232.13 166.255 232.422 167.359C232.724 168.464 232.875 169.682 232.875 171.016V172.812C232.875 174.156 232.771 175.443 232.562 176.672C232.354 177.901 232.005 179.036 231.516 180.078C231.036 181.109 230.391 182.005 229.578 182.766C228.766 183.526 227.76 184.12 226.562 184.547C225.365 184.964 223.948 185.172 222.312 185.172H221.891L221.906 183.531ZM245.781 162.156V185H243.922V164.516L237.734 166.812V165.047L245.469 162.156H245.781ZM269.078 183.391V185H254.844V183.547L262.297 175.094C263.224 174.042 263.964 173.12 264.516 172.328C265.068 171.526 265.464 170.797 265.703 170.141C265.953 169.474 266.078 168.828 266.078 168.203C266.078 167.286 265.896 166.479 265.531 165.781C265.177 165.083 264.646 164.536 263.938 164.141C263.229 163.745 262.354 163.547 261.312 163.547C260.271 163.547 259.365 163.771 258.594 164.219C257.823 164.667 257.229 165.292 256.812 166.094C256.406 166.885 256.203 167.786 256.203 168.797H254.344C254.344 167.547 254.62 166.401 255.172 165.359C255.734 164.318 256.536 163.49 257.578 162.875C258.62 162.25 259.865 161.938 261.312 161.938C262.688 161.938 263.87 162.182 264.859 162.672C265.849 163.151 266.609 163.844 267.141 164.75C267.682 165.656 267.953 166.75 267.953 168.031C267.953 168.719 267.828 169.411 267.578 170.109C267.339 170.807 267.005 171.505 266.578 172.203C266.161 172.891 265.682 173.573 265.141 174.25C264.609 174.927 264.052 175.594 263.469 176.25L257.125 183.391H269.078ZM276.75 172.594H278.656C279.823 172.594 280.797 172.396 281.578 172C282.37 171.594 282.964 171.057 283.359 170.391C283.766 169.724 283.969 168.984 283.969 168.172C283.969 167.255 283.797 166.453 283.453 165.766C283.109 165.068 282.583 164.526 281.875 164.141C281.177 163.745 280.281 163.547 279.188 163.547C278.229 163.547 277.375 163.734 276.625 164.109C275.875 164.484 275.281 165.021 274.844 165.719C274.406 166.417 274.188 167.25 274.188 168.219H272.328C272.328 166.979 272.625 165.891 273.219 164.953C273.812 164.005 274.63 163.266 275.672 162.734C276.714 162.203 277.885 161.938 279.188 161.938C280.531 161.938 281.698 162.182 282.688 162.672C283.688 163.161 284.458 163.875 285 164.812C285.552 165.75 285.828 166.891 285.828 168.234C285.828 168.922 285.677 169.599 285.375 170.266C285.083 170.932 284.646 171.536 284.062 172.078C283.479 172.609 282.755 173.036 281.891 173.359C281.026 173.682 280.021 173.844 278.875 173.844H276.75V172.594ZM276.75 174.203V172.969H278.875C280.177 172.969 281.292 173.12 282.219 173.422C283.146 173.714 283.906 174.13 284.5 174.672C285.104 175.203 285.547 175.823 285.828 176.531C286.109 177.24 286.25 178 286.25 178.812C286.25 179.854 286.078 180.776 285.734 181.578C285.391 182.38 284.901 183.062 284.266 183.625C283.641 184.177 282.901 184.599 282.047 184.891C281.203 185.172 280.276 185.312 279.266 185.312C278.349 185.312 277.453 185.177 276.578 184.906C275.714 184.635 274.932 184.234 274.234 183.703C273.547 183.161 273 182.484 272.594 181.672C272.188 180.849 271.984 179.901 271.984 178.828H273.844C273.844 179.786 274.073 180.635 274.531 181.375C274.99 182.104 275.625 182.677 276.438 183.094C277.26 183.5 278.203 183.703 279.266 183.703C280.339 183.703 281.255 183.521 282.016 183.156C282.786 182.781 283.375 182.234 283.781 181.516C284.188 180.797 284.391 179.917 284.391 178.875C284.391 177.781 284.146 176.891 283.656 176.203C283.177 175.516 282.505 175.01 281.641 174.688C280.786 174.365 279.792 174.203 278.656 174.203H276.75ZM304.047 171.672V175.5C304.047 177.167 303.891 178.62 303.578 179.859C303.266 181.089 302.807 182.109 302.203 182.922C301.609 183.724 300.88 184.323 300.016 184.719C299.161 185.115 298.182 185.312 297.078 185.312C296.203 185.312 295.401 185.188 294.672 184.938C293.943 184.688 293.292 184.307 292.719 183.797C292.156 183.276 291.677 182.625 291.281 181.844C290.885 181.062 290.583 180.146 290.375 179.094C290.167 178.031 290.062 176.833 290.062 175.5V171.672C290.062 169.995 290.219 168.547 290.531 167.328C290.854 166.109 291.312 165.099 291.906 164.297C292.51 163.495 293.245 162.901 294.109 162.516C294.974 162.12 295.953 161.922 297.047 161.922C297.922 161.922 298.724 162.052 299.453 162.312C300.193 162.562 300.844 162.938 301.406 163.438C301.979 163.938 302.458 164.578 302.844 165.359C303.24 166.13 303.536 167.042 303.734 168.094C303.943 169.146 304.047 170.339 304.047 171.672ZM302.188 175.719V171.438C302.188 170.406 302.115 169.469 301.969 168.625C301.833 167.781 301.63 167.042 301.359 166.406C301.089 165.771 300.745 165.24 300.328 164.812C299.922 164.385 299.443 164.068 298.891 163.859C298.349 163.641 297.734 163.531 297.047 163.531C296.203 163.531 295.458 163.703 294.812 164.047C294.177 164.38 293.646 164.88 293.219 165.547C292.792 166.203 292.469 167.026 292.25 168.016C292.042 169.005 291.938 170.146 291.938 171.438V175.719C291.938 176.74 292.005 177.672 292.141 178.516C292.276 179.349 292.484 180.089 292.766 180.734C293.047 181.38 293.391 181.927 293.797 182.375C294.214 182.812 294.693 183.146 295.234 183.375C295.786 183.594 296.401 183.703 297.078 183.703C297.943 183.703 298.693 183.531 299.328 183.188C299.964 182.833 300.495 182.318 300.922 181.641C301.349 180.953 301.667 180.115 301.875 179.125C302.083 178.125 302.188 176.99 302.188 175.719ZM322.328 183.391V185H308.094V183.547L315.547 175.094C316.474 174.042 317.214 173.12 317.766 172.328C318.318 171.526 318.714 170.797 318.953 170.141C319.203 169.474 319.328 168.828 319.328 168.203C319.328 167.286 319.146 166.479 318.781 165.781C318.427 165.083 317.896 164.536 317.188 164.141C316.479 163.745 315.604 163.547 314.562 163.547C313.521 163.547 312.615 163.771 311.844 164.219C311.073 164.667 310.479 165.292 310.062 166.094C309.656 166.885 309.453 167.786 309.453 168.797H307.594C307.594 167.547 307.87 166.401 308.422 165.359C308.984 164.318 309.786 163.49 310.828 162.875C311.87 162.25 313.115 161.938 314.562 161.938C315.938 161.938 317.12 162.182 318.109 162.672C319.099 163.151 319.859 163.844 320.391 164.75C320.932 165.656 321.203 166.75 321.203 168.031C321.203 168.719 321.078 169.411 320.828 170.109C320.589 170.807 320.255 171.505 319.828 172.203C319.411 172.891 318.932 173.573 318.391 174.25C317.859 174.927 317.302 175.594 316.719 176.25L310.375 183.391H322.328Z" fill="white"/>
<path d="M37.5 162.25C37.5 161.786 37.6844 161.341 38.0126 161.013C38.3408 160.684 38.7859 160.5 39.25 160.5H43.0177C43.432 160.5 43.8327 160.647 44.1487 160.915C44.4646 161.183 44.6753 161.554 44.7432 161.963L46.0382 169.724C46.1001 170.094 46.0417 170.474 45.8716 170.808C45.7015 171.141 45.4286 171.412 45.0933 171.579L42.3842 172.932C43.3557 175.339 44.8025 177.526 46.6381 179.362C48.4738 181.198 50.6606 182.644 53.068 183.616L54.4225 180.907C54.5897 180.572 54.8599 180.299 55.1935 180.129C55.527 179.959 55.9064 179.9 56.2757 179.962L64.037 181.257C64.4456 181.325 64.8169 181.535 65.0848 181.851C65.3527 182.167 65.4998 182.568 65.5 182.982V186.75C65.5 187.214 65.3156 187.659 64.9874 187.987C64.6593 188.316 64.2141 188.5 63.75 188.5H60.25C47.685 188.5 37.5 178.315 37.5 165.75V162.25Z" fill="white"/>
<path d="M93.0469 253.359V255H81.25V253.359H93.0469ZM81.8125 232.25V255H79.8906V232.25H81.8125ZM106.609 251.969V243.25C106.609 242.448 106.443 241.755 106.109 241.172C105.776 240.589 105.286 240.141 104.641 239.828C103.995 239.516 103.198 239.359 102.25 239.359C101.375 239.359 100.594 239.516 99.9062 239.828C99.2292 240.13 98.6927 240.542 98.2969 241.062C97.9115 241.573 97.7188 242.141 97.7188 242.766L95.8438 242.75C95.8438 242.115 96 241.5 96.3125 240.906C96.625 240.312 97.0677 239.781 97.6406 239.312C98.2135 238.844 98.8958 238.474 99.6875 238.203C100.49 237.922 101.37 237.781 102.328 237.781C103.536 237.781 104.599 237.984 105.516 238.391C106.443 238.797 107.167 239.406 107.688 240.219C108.208 241.031 108.469 242.052 108.469 243.281V251.453C108.469 252.036 108.51 252.641 108.594 253.266C108.688 253.891 108.818 254.406 108.984 254.812V255H107C106.875 254.625 106.776 254.156 106.703 253.594C106.641 253.021 106.609 252.479 106.609 251.969ZM107.047 245.156L107.078 246.594H103.406C102.448 246.594 101.589 246.682 100.828 246.859C100.078 247.026 99.4427 247.276 98.9219 247.609C98.401 247.932 98 248.323 97.7188 248.781C97.4479 249.24 97.3125 249.76 97.3125 250.344C97.3125 250.948 97.4635 251.5 97.7656 252C98.0781 252.5 98.5156 252.901 99.0781 253.203C99.651 253.495 100.328 253.641 101.109 253.641C102.151 253.641 103.068 253.448 103.859 253.062C104.661 252.677 105.323 252.172 105.844 251.547C106.365 250.922 106.714 250.24 106.891 249.5L107.703 250.578C107.568 251.099 107.318 251.635 106.953 252.188C106.599 252.729 106.135 253.24 105.562 253.719C104.99 254.188 104.312 254.573 103.531 254.875C102.76 255.167 101.885 255.312 100.906 255.312C99.8021 255.312 98.8385 255.104 98.0156 254.688C97.2031 254.271 96.5677 253.703 96.1094 252.984C95.6615 252.255 95.4375 251.432 95.4375 250.516C95.4375 249.682 95.6146 248.938 95.9688 248.281C96.3229 247.615 96.8333 247.052 97.5 246.594C98.1771 246.125 98.9896 245.771 99.9375 245.531C100.896 245.281 101.969 245.156 103.156 245.156H107.047ZM124.312 251.094V238.094H126.188V255H124.391L124.312 251.094ZM124.656 247.969L125.625 247.938C125.625 249 125.5 249.979 125.25 250.875C125 251.771 124.609 252.552 124.078 253.219C123.547 253.885 122.859 254.401 122.016 254.766C121.172 255.13 120.156 255.312 118.969 255.312C118.146 255.312 117.391 255.198 116.703 254.969C116.026 254.729 115.443 254.354 114.953 253.844C114.464 253.333 114.083 252.672 113.812 251.859C113.552 251.047 113.422 250.062 113.422 248.906V238.094H115.281V248.938C115.281 249.844 115.38 250.599 115.578 251.203C115.786 251.807 116.068 252.292 116.422 252.656C116.786 253.021 117.203 253.281 117.672 253.438C118.141 253.594 118.646 253.672 119.188 253.672C120.562 253.672 121.646 253.406 122.438 252.875C123.24 252.344 123.807 251.646 124.141 250.781C124.484 249.906 124.656 248.969 124.656 247.969ZM132.938 240.891V255H131.078V238.094H132.891L132.938 240.891ZM138.922 237.969L138.875 239.688C138.667 239.656 138.464 239.63 138.266 239.609C138.068 239.589 137.854 239.578 137.625 239.578C136.812 239.578 136.099 239.729 135.484 240.031C134.88 240.323 134.37 240.734 133.953 241.266C133.536 241.786 133.219 242.401 133 243.109C132.781 243.807 132.656 244.557 132.625 245.359L131.938 245.625C131.938 244.521 132.052 243.495 132.281 242.547C132.51 241.599 132.859 240.771 133.328 240.062C133.807 239.344 134.406 238.786 135.125 238.391C135.854 237.984 136.708 237.781 137.688 237.781C137.927 237.781 138.161 237.802 138.391 237.844C138.63 237.875 138.807 237.917 138.922 237.969ZM148.078 255.312C146.974 255.312 145.958 255.109 145.031 254.703C144.115 254.297 143.312 253.724 142.625 252.984C141.948 252.245 141.422 251.37 141.047 250.359C140.682 249.339 140.5 248.224 140.5 247.016V246.344C140.5 245.042 140.693 243.865 141.078 242.812C141.464 241.76 141.995 240.859 142.672 240.109C143.349 239.359 144.12 238.786 144.984 238.391C145.859 237.984 146.776 237.781 147.734 237.781C148.807 237.781 149.76 237.974 150.594 238.359C151.427 238.734 152.125 239.271 152.688 239.969C153.26 240.656 153.693 241.474 153.984 242.422C154.276 243.359 154.422 244.396 154.422 245.531V246.672H141.625V245.078H152.562V244.859C152.542 243.911 152.349 243.026 151.984 242.203C151.63 241.37 151.099 240.693 150.391 240.172C149.682 239.651 148.797 239.391 147.734 239.391C146.943 239.391 146.214 239.557 145.547 239.891C144.891 240.224 144.323 240.703 143.844 241.328C143.375 241.943 143.01 242.677 142.75 243.531C142.5 244.375 142.375 245.312 142.375 246.344V247.016C142.375 247.953 142.51 248.828 142.781 249.641C143.062 250.443 143.458 251.151 143.969 251.766C144.49 252.38 145.104 252.859 145.812 253.203C146.521 253.547 147.302 253.719 148.156 253.719C149.156 253.719 150.042 253.536 150.812 253.172C151.583 252.797 152.276 252.208 152.891 251.406L154.062 252.312C153.698 252.854 153.24 253.354 152.688 253.812C152.146 254.271 151.495 254.635 150.734 254.906C149.974 255.177 149.089 255.312 148.078 255.312ZM159.969 241.703V255H158.109V238.094H159.891L159.969 241.703ZM159.547 245.5L158.719 245.031C158.781 244.031 158.984 243.094 159.328 242.219C159.672 241.344 160.135 240.573 160.719 239.906C161.312 239.24 162.005 238.719 162.797 238.344C163.599 237.969 164.484 237.781 165.453 237.781C166.297 237.781 167.052 237.896 167.719 238.125C168.385 238.354 168.953 238.719 169.422 239.219C169.891 239.719 170.245 240.359 170.484 241.141C170.734 241.922 170.859 242.875 170.859 244V255H168.984V243.984C168.984 242.818 168.823 241.906 168.5 241.25C168.177 240.583 167.719 240.109 167.125 239.828C166.531 239.547 165.828 239.406 165.016 239.406C164.12 239.406 163.333 239.604 162.656 240C161.99 240.385 161.427 240.891 160.969 241.516C160.521 242.13 160.177 242.792 159.938 243.5C159.698 244.198 159.568 244.865 159.547 245.5ZM185.828 250.688C185.828 250.229 185.714 249.776 185.484 249.328C185.255 248.88 184.812 248.469 184.156 248.094C183.51 247.719 182.557 247.401 181.297 247.141C180.359 246.932 179.521 246.698 178.781 246.438C178.052 246.177 177.438 245.865 176.938 245.5C176.438 245.135 176.057 244.698 175.797 244.188C175.536 243.677 175.406 243.073 175.406 242.375C175.406 241.75 175.542 241.161 175.812 240.609C176.094 240.047 176.49 239.557 177 239.141C177.521 238.714 178.146 238.38 178.875 238.141C179.615 237.901 180.443 237.781 181.359 237.781C182.661 237.781 183.776 238.005 184.703 238.453C185.641 238.891 186.354 239.49 186.844 240.25C187.344 241.01 187.594 241.87 187.594 242.828H185.734C185.734 242.245 185.562 241.693 185.219 241.172C184.885 240.651 184.391 240.224 183.734 239.891C183.089 239.557 182.297 239.391 181.359 239.391C180.391 239.391 179.604 239.536 179 239.828C178.396 240.12 177.953 240.49 177.672 240.938C177.401 241.385 177.266 241.849 177.266 242.328C177.266 242.703 177.323 243.047 177.438 243.359C177.562 243.661 177.781 243.943 178.094 244.203C178.417 244.464 178.875 244.708 179.469 244.938C180.062 245.167 180.833 245.391 181.781 245.609C183.146 245.911 184.26 246.281 185.125 246.719C186 247.146 186.646 247.677 187.062 248.312C187.479 248.938 187.688 249.698 187.688 250.594C187.688 251.292 187.542 251.932 187.25 252.516C186.958 253.089 186.536 253.583 185.984 254C185.443 254.417 184.786 254.74 184.016 254.969C183.255 255.198 182.401 255.312 181.453 255.312C180.026 255.312 178.818 255.078 177.828 254.609C176.849 254.13 176.104 253.505 175.594 252.734C175.094 251.953 174.844 251.125 174.844 250.25H176.703C176.766 251.125 177.042 251.818 177.531 252.328C178.021 252.828 178.62 253.182 179.328 253.391C180.047 253.599 180.755 253.703 181.453 253.703C182.411 253.703 183.214 253.562 183.859 253.281C184.505 253 184.995 252.63 185.328 252.172C185.661 251.714 185.828 251.219 185.828 250.688ZM191.75 253.859C191.75 253.495 191.865 253.188 192.094 252.938C192.333 252.677 192.656 252.547 193.062 252.547C193.479 252.547 193.807 252.672 194.047 252.922C194.286 253.172 194.406 253.484 194.406 253.859C194.406 254.214 194.286 254.516 194.047 254.766C193.807 255.016 193.479 255.141 193.062 255.141C192.656 255.141 192.333 255.016 192.094 254.766C191.865 254.516 191.75 254.214 191.75 253.859ZM204.266 251.047L208.344 238.094H209.656L208.875 241.578L204.609 255H203.297L204.266 251.047ZM200.031 238.094L203.609 251.125L204.375 255H203.016L198.109 238.094H200.031ZM214.734 251.078L218.219 238.094H220.141L215.234 255H213.891L214.734 251.078ZM209.922 238.094L213.938 250.938L214.953 255H213.641L209.281 241.562L208.547 238.094H209.922ZM230.266 255.312C229.161 255.312 228.146 255.109 227.219 254.703C226.302 254.297 225.5 253.724 224.812 252.984C224.135 252.245 223.609 251.37 223.234 250.359C222.87 249.339 222.688 248.224 222.688 247.016V246.344C222.688 245.042 222.88 243.865 223.266 242.812C223.651 241.76 224.182 240.859 224.859 240.109C225.536 239.359 226.307 238.786 227.172 238.391C228.047 237.984 228.964 237.781 229.922 237.781C230.995 237.781 231.948 237.974 232.781 238.359C233.615 238.734 234.312 239.271 234.875 239.969C235.448 240.656 235.88 241.474 236.172 242.422C236.464 243.359 236.609 244.396 236.609 245.531V246.672H223.812V245.078H234.75V244.859C234.729 243.911 234.536 243.026 234.172 242.203C233.818 241.37 233.286 240.693 232.578 240.172C231.87 239.651 230.984 239.391 229.922 239.391C229.13 239.391 228.401 239.557 227.734 239.891C227.078 240.224 226.51 240.703 226.031 241.328C225.562 241.943 225.198 242.677 224.938 243.531C224.688 244.375 224.562 245.312 224.562 246.344V247.016C224.562 247.953 224.698 248.828 224.969 249.641C225.25 250.443 225.646 251.151 226.156 251.766C226.677 252.38 227.292 252.859 228 253.203C228.708 253.547 229.49 253.719 230.344 253.719C231.344 253.719 232.229 253.536 233 253.172C233.771 252.797 234.464 252.208 235.078 251.406L236.25 252.312C235.885 252.854 235.427 253.354 234.875 253.812C234.333 254.271 233.682 254.635 232.922 254.906C232.161 255.177 231.276 255.312 230.266 255.312ZM246.688 238.094V239.625H238.219V238.094H246.688ZM241.328 233.75H243.188V250.891C243.188 251.672 243.292 252.26 243.5 252.656C243.708 253.052 243.979 253.318 244.312 253.453C244.646 253.589 245.005 253.656 245.391 253.656C245.672 253.656 245.943 253.641 246.203 253.609C246.464 253.568 246.698 253.526 246.906 253.484L246.984 255.062C246.755 255.135 246.458 255.193 246.094 255.234C245.729 255.286 245.365 255.312 245 255.312C244.281 255.312 243.646 255.182 243.094 254.922C242.542 254.651 242.109 254.193 241.797 253.547C241.484 252.891 241.328 252 241.328 250.875V233.75ZM257.141 255.312C256.036 255.312 255.021 255.109 254.094 254.703C253.177 254.297 252.375 253.724 251.688 252.984C251.01 252.245 250.484 251.37 250.109 250.359C249.745 249.339 249.562 248.224 249.562 247.016V246.344C249.562 245.042 249.755 243.865 250.141 242.812C250.526 241.76 251.057 240.859 251.734 240.109C252.411 239.359 253.182 238.786 254.047 238.391C254.922 237.984 255.839 237.781 256.797 237.781C257.87 237.781 258.823 237.974 259.656 238.359C260.49 238.734 261.188 239.271 261.75 239.969C262.323 240.656 262.755 241.474 263.047 242.422C263.339 243.359 263.484 244.396 263.484 245.531V246.672H250.688V245.078H261.625V244.859C261.604 243.911 261.411 243.026 261.047 242.203C260.693 241.37 260.161 240.693 259.453 240.172C258.745 239.651 257.859 239.391 256.797 239.391C256.005 239.391 255.276 239.557 254.609 239.891C253.953 240.224 253.385 240.703 252.906 241.328C252.438 241.943 252.073 242.677 251.812 243.531C251.562 244.375 251.438 245.312 251.438 246.344V247.016C251.438 247.953 251.573 248.828 251.844 249.641C252.125 250.443 252.521 251.151 253.031 251.766C253.552 252.38 254.167 252.859 254.875 253.203C255.583 253.547 256.365 253.719 257.219 253.719C258.219 253.719 259.104 253.536 259.875 253.172C260.646 252.797 261.339 252.208 261.953 251.406L263.125 252.312C262.76 252.854 262.302 253.354 261.75 253.812C261.208 254.271 260.557 254.635 259.797 254.906C259.036 255.177 258.151 255.312 257.141 255.312ZM269.031 240.891V255H267.172V238.094H268.984L269.031 240.891ZM275.016 237.969L274.969 239.688C274.76 239.656 274.557 239.63 274.359 239.609C274.161 239.589 273.948 239.578 273.719 239.578C272.906 239.578 272.193 239.729 271.578 240.031C270.974 240.323 270.464 240.734 270.047 241.266C269.63 241.786 269.312 242.401 269.094 243.109C268.875 243.807 268.75 244.557 268.719 245.359L268.031 245.625C268.031 244.521 268.146 243.495 268.375 242.547C268.604 241.599 268.953 240.771 269.422 240.062C269.901 239.344 270.5 238.786 271.219 238.391C271.948 237.984 272.802 237.781 273.781 237.781C274.021 237.781 274.255 237.802 274.484 237.844C274.724 237.875 274.901 237.917 275.016 237.969ZM280.031 238.094V255H278.172V238.094H280.031ZM277.844 233.203C277.844 232.849 277.953 232.552 278.172 232.312C278.401 232.062 278.714 231.938 279.109 231.938C279.505 231.938 279.818 232.062 280.047 232.312C280.286 232.552 280.406 232.849 280.406 233.203C280.406 233.547 280.286 233.844 280.047 234.094C279.818 234.333 279.505 234.453 279.109 234.453C278.714 234.453 278.401 234.333 278.172 234.094C277.953 233.844 277.844 233.547 277.844 233.203ZM287 241.703V255H285.141V238.094H286.922L287 241.703ZM286.578 245.5L285.75 245.031C285.812 244.031 286.016 243.094 286.359 242.219C286.703 241.344 287.167 240.573 287.75 239.906C288.344 239.24 289.036 238.719 289.828 238.344C290.63 237.969 291.516 237.781 292.484 237.781C293.328 237.781 294.083 237.896 294.75 238.125C295.417 238.354 295.984 238.719 296.453 239.219C296.922 239.719 297.276 240.359 297.516 241.141C297.766 241.922 297.891 242.875 297.891 244V255H296.016V243.984C296.016 242.818 295.854 241.906 295.531 241.25C295.208 240.583 294.75 240.109 294.156 239.828C293.562 239.547 292.859 239.406 292.047 239.406C291.151 239.406 290.365 239.604 289.688 240C289.021 240.385 288.458 240.891 288 241.516C287.552 242.13 287.208 242.792 286.969 243.5C286.729 244.198 286.599 244.865 286.578 245.5ZM313.859 238.094H315.594V254.703C315.594 256.172 315.312 257.432 314.75 258.484C314.198 259.536 313.411 260.344 312.391 260.906C311.38 261.469 310.188 261.75 308.812 261.75C308.115 261.75 307.396 261.641 306.656 261.422C305.927 261.214 305.234 260.891 304.578 260.453C303.932 260.026 303.38 259.495 302.922 258.859L303.969 257.719C304.656 258.552 305.391 259.161 306.172 259.547C306.953 259.943 307.797 260.141 308.703 260.141C309.776 260.141 310.682 259.927 311.422 259.5C312.172 259.073 312.74 258.458 313.125 257.656C313.521 256.854 313.719 255.891 313.719 254.766V241.812L313.859 238.094ZM301.984 246.719V246.391C301.984 245.078 302.13 243.896 302.422 242.844C302.724 241.781 303.156 240.875 303.719 240.125C304.281 239.365 304.964 238.786 305.766 238.391C306.578 237.984 307.495 237.781 308.516 237.781C309.495 237.781 310.365 237.943 311.125 238.266C311.885 238.589 312.542 239.052 313.094 239.656C313.646 240.26 314.089 240.979 314.422 241.812C314.766 242.646 315.016 243.573 315.172 244.594V248.766C315.047 249.724 314.818 250.604 314.484 251.406C314.151 252.198 313.708 252.891 313.156 253.484C312.604 254.068 311.938 254.521 311.156 254.844C310.385 255.156 309.495 255.312 308.484 255.312C307.474 255.312 306.568 255.104 305.766 254.688C304.964 254.271 304.281 253.682 303.719 252.922C303.156 252.151 302.724 251.24 302.422 250.188C302.13 249.135 301.984 247.979 301.984 246.719ZM303.859 246.391V246.719C303.859 247.708 303.958 248.625 304.156 249.469C304.354 250.312 304.656 251.047 305.062 251.672C305.469 252.297 305.984 252.786 306.609 253.141C307.234 253.495 307.969 253.672 308.812 253.672C309.885 253.672 310.786 253.469 311.516 253.062C312.245 252.646 312.823 252.099 313.25 251.422C313.677 250.734 313.99 249.984 314.188 249.172V244.312C314.073 243.76 313.896 243.198 313.656 242.625C313.427 242.052 313.104 241.526 312.688 241.047C312.281 240.557 311.76 240.167 311.125 239.875C310.5 239.573 309.74 239.422 308.844 239.422C307.99 239.422 307.245 239.599 306.609 239.953C305.984 240.307 305.469 240.802 305.062 241.438C304.656 242.062 304.354 242.797 304.156 243.641C303.958 244.484 303.859 245.401 303.859 246.391ZM330.609 250.688C330.609 250.229 330.495 249.776 330.266 249.328C330.036 248.88 329.594 248.469 328.938 248.094C328.292 247.719 327.339 247.401 326.078 247.141C325.141 246.932 324.302 246.698 323.562 246.438C322.833 246.177 322.219 245.865 321.719 245.5C321.219 245.135 320.839 244.698 320.578 244.188C320.318 243.677 320.188 243.073 320.188 242.375C320.188 241.75 320.323 241.161 320.594 240.609C320.875 240.047 321.271 239.557 321.781 239.141C322.302 238.714 322.927 238.38 323.656 238.141C324.396 237.901 325.224 237.781 326.141 237.781C327.443 237.781 328.557 238.005 329.484 238.453C330.422 238.891 331.135 239.49 331.625 240.25C332.125 241.01 332.375 241.87 332.375 242.828H330.516C330.516 242.245 330.344 241.693 330 241.172C329.667 240.651 329.172 240.224 328.516 239.891C327.87 239.557 327.078 239.391 326.141 239.391C325.172 239.391 324.385 239.536 323.781 239.828C323.177 240.12 322.734 240.49 322.453 240.938C322.182 241.385 322.047 241.849 322.047 242.328C322.047 242.703 322.104 243.047 322.219 243.359C322.344 243.661 322.562 243.943 322.875 244.203C323.198 244.464 323.656 244.708 324.25 244.938C324.844 245.167 325.615 245.391 326.562 245.609C327.927 245.911 329.042 246.281 329.906 246.719C330.781 247.146 331.427 247.677 331.844 248.312C332.26 248.938 332.469 249.698 332.469 250.594C332.469 251.292 332.323 251.932 332.031 252.516C331.74 253.089 331.318 253.583 330.766 254C330.224 254.417 329.568 254.74 328.797 254.969C328.036 255.198 327.182 255.312 326.234 255.312C324.807 255.312 323.599 255.078 322.609 254.609C321.63 254.13 320.885 253.505 320.375 252.734C319.875 251.953 319.625 251.125 319.625 250.25H321.484C321.547 251.125 321.823 251.818 322.312 252.328C322.802 252.828 323.401 253.182 324.109 253.391C324.828 253.599 325.536 253.703 326.234 253.703C327.193 253.703 327.995 253.562 328.641 253.281C329.286 253 329.776 252.63 330.109 252.172C330.443 251.714 330.609 251.219 330.609 250.688ZM361.625 246.984C361.583 247.964 361.438 248.943 361.188 249.922C360.948 250.901 360.583 251.802 360.094 252.625C359.615 253.438 358.995 254.089 358.234 254.578C357.484 255.068 356.583 255.312 355.531 255.312C354.865 255.312 354.276 255.193 353.766 254.953C353.266 254.714 352.849 254.37 352.516 253.922C352.182 253.474 351.948 252.932 351.812 252.297C351.677 251.651 351.641 250.932 351.703 250.141L352.484 241.234H354.062L353.281 250.141C353.208 250.974 353.245 251.646 353.391 252.156C353.536 252.656 353.745 253.042 354.016 253.312C354.286 253.573 354.573 253.75 354.875 253.844C355.188 253.927 355.469 253.969 355.719 253.969C356.417 253.969 357.031 253.792 357.562 253.438C358.094 253.083 358.547 252.589 358.922 251.953C359.297 251.318 359.589 250.578 359.797 249.734C360.005 248.891 360.13 247.974 360.172 246.984C360.245 245.411 360.172 243.964 359.953 242.641C359.745 241.318 359.375 240.141 358.844 239.109C358.312 238.068 357.62 237.188 356.766 236.469C355.911 235.75 354.885 235.203 353.688 234.828C352.5 234.453 351.13 234.266 349.578 234.266C348.234 234.266 346.974 234.469 345.797 234.875C344.63 235.271 343.568 235.854 342.609 236.625C341.651 237.385 340.818 238.307 340.109 239.391C339.411 240.474 338.854 241.703 338.438 243.078C338.031 244.443 337.792 245.927 337.719 247.531C337.646 249.083 337.74 250.531 338 251.875C338.26 253.219 338.677 254.432 339.25 255.516C339.823 256.599 340.547 257.526 341.422 258.297C342.297 259.068 343.312 259.656 344.469 260.062C345.635 260.469 346.938 260.672 348.375 260.672C349.292 260.672 350.219 260.557 351.156 260.328C352.104 260.109 352.896 259.812 353.531 259.438L354 260.688C353.312 261.146 352.427 261.49 351.344 261.719C350.26 261.958 349.25 262.078 348.312 262.078C346.729 262.078 345.281 261.859 343.969 261.422C342.667 260.995 341.51 260.365 340.5 259.531C339.5 258.708 338.667 257.703 338 256.516C337.333 255.339 336.844 253.995 336.531 252.484C336.219 250.974 336.099 249.323 336.172 247.531C336.245 245.781 336.505 244.151 336.953 242.641C337.411 241.13 338.031 239.776 338.812 238.578C339.594 237.37 340.526 236.333 341.609 235.469C342.693 234.604 343.906 233.943 345.25 233.484C346.604 233.026 348.068 232.797 349.641 232.797C351.307 232.797 352.797 233.01 354.109 233.438C355.432 233.865 356.578 234.484 357.547 235.297C358.526 236.099 359.328 237.078 359.953 238.234C360.578 239.391 361.031 240.703 361.312 242.172C361.594 243.641 361.698 245.245 361.625 246.984ZM344.719 248.328C344.635 249.13 344.63 249.865 344.703 250.531C344.786 251.198 344.943 251.776 345.172 252.266C345.401 252.745 345.708 253.12 346.094 253.391C346.479 253.651 346.938 253.781 347.469 253.781C347.865 253.781 348.276 253.708 348.703 253.562C349.13 253.406 349.542 253.151 349.938 252.797C350.344 252.443 350.724 251.958 351.078 251.344C351.432 250.719 351.734 249.932 351.984 248.984L352.75 249.938C352.5 250.823 352.182 251.599 351.797 252.266C351.422 252.932 350.99 253.495 350.5 253.953C350.021 254.401 349.495 254.74 348.922 254.969C348.359 255.198 347.76 255.312 347.125 255.312C346.396 255.312 345.755 255.146 345.203 254.812C344.651 254.479 344.198 254.005 343.844 253.391C343.5 252.776 343.26 252.042 343.125 251.188C342.99 250.333 342.969 249.38 343.062 248.328C343.156 247.255 343.344 246.266 343.625 245.359C343.917 244.443 344.271 243.63 344.688 242.922C345.115 242.203 345.599 241.594 346.141 241.094C346.693 240.594 347.281 240.214 347.906 239.953C348.531 239.682 349.182 239.547 349.859 239.547C350.911 239.547 351.74 239.719 352.344 240.062C352.948 240.396 353.521 240.786 354.062 241.234L353 242.266C352.688 241.911 352.276 241.609 351.766 241.359C351.266 241.109 350.667 240.984 349.969 240.984C349.333 240.984 348.729 241.135 348.156 241.438C347.583 241.729 347.057 242.182 346.578 242.797C346.109 243.401 345.714 244.161 345.391 245.078C345.068 245.995 344.844 247.078 344.719 248.328ZM377.078 238.094H378.812V254.703C378.812 256.172 378.531 257.432 377.969 258.484C377.417 259.536 376.63 260.344 375.609 260.906C374.599 261.469 373.406 261.75 372.031 261.75C371.333 261.75 370.615 261.641 369.875 261.422C369.146 261.214 368.453 260.891 367.797 260.453C367.151 260.026 366.599 259.495 366.141 258.859L367.188 257.719C367.875 258.552 368.609 259.161 369.391 259.547C370.172 259.943 371.016 260.141 371.922 260.141C372.995 260.141 373.901 259.927 374.641 259.5C375.391 259.073 375.958 258.458 376.344 257.656C376.74 256.854 376.938 255.891 376.938 254.766V241.812L377.078 238.094ZM365.203 246.719V246.391C365.203 245.078 365.349 243.896 365.641 242.844C365.943 241.781 366.375 240.875 366.938 240.125C367.5 239.365 368.182 238.786 368.984 238.391C369.797 237.984 370.714 237.781 371.734 237.781C372.714 237.781 373.583 237.943 374.344 238.266C375.104 238.589 375.76 239.052 376.312 239.656C376.865 240.26 377.307 240.979 377.641 241.812C377.984 242.646 378.234 243.573 378.391 244.594V248.766C378.266 249.724 378.036 250.604 377.703 251.406C377.37 252.198 376.927 252.891 376.375 253.484C375.823 254.068 375.156 254.521 374.375 254.844C373.604 255.156 372.714 255.312 371.703 255.312C370.693 255.312 369.786 255.104 368.984 254.688C368.182 254.271 367.5 253.682 366.938 252.922C366.375 252.151 365.943 251.24 365.641 250.188C365.349 249.135 365.203 247.979 365.203 246.719ZM367.078 246.391V246.719C367.078 247.708 367.177 248.625 367.375 249.469C367.573 250.312 367.875 251.047 368.281 251.672C368.688 252.297 369.203 252.786 369.828 253.141C370.453 253.495 371.188 253.672 372.031 253.672C373.104 253.672 374.005 253.469 374.734 253.062C375.464 252.646 376.042 252.099 376.469 251.422C376.896 250.734 377.208 249.984 377.406 249.172V244.312C377.292 243.76 377.115 243.198 376.875 242.625C376.646 242.052 376.323 241.526 375.906 241.047C375.5 240.557 374.979 240.167 374.344 239.875C373.719 239.573 372.958 239.422 372.062 239.422C371.208 239.422 370.464 239.599 369.828 239.953C369.203 240.307 368.688 240.802 368.281 241.438C367.875 242.062 367.573 242.797 367.375 243.641C367.177 244.484 367.078 245.401 367.078 246.391ZM385.469 241.594V255H383.594V238.094H385.391L385.469 241.594ZM385.125 245.5L384.219 245.031C384.281 244.031 384.469 243.094 384.781 242.219C385.104 241.344 385.552 240.573 386.125 239.906C386.698 239.24 387.385 238.719 388.188 238.344C388.99 237.969 389.901 237.781 390.922 237.781C391.745 237.781 392.49 237.896 393.156 238.125C393.833 238.344 394.406 238.693 394.875 239.172C395.354 239.641 395.724 240.255 395.984 241.016C396.245 241.776 396.375 242.688 396.375 243.75V255H394.516V243.812C394.516 242.688 394.339 241.807 393.984 241.172C393.641 240.536 393.156 240.083 392.531 239.812C391.917 239.542 391.203 239.406 390.391 239.406C389.432 239.406 388.62 239.604 387.953 240C387.297 240.385 386.76 240.891 386.344 241.516C385.938 242.13 385.635 242.792 385.438 243.5C385.24 244.198 385.135 244.865 385.125 245.5ZM396.359 244.031L395.109 244.062C395.161 243.24 395.349 242.453 395.672 241.703C396.005 240.953 396.458 240.286 397.031 239.703C397.604 239.109 398.286 238.641 399.078 238.297C399.88 237.953 400.781 237.781 401.781 237.781C402.656 237.781 403.438 237.901 404.125 238.141C404.812 238.37 405.391 238.74 405.859 239.25C406.339 239.75 406.703 240.391 406.953 241.172C407.203 241.953 407.328 242.891 407.328 243.984V255H405.453V243.969C405.453 242.771 405.276 241.844 404.922 241.188C404.578 240.521 404.099 240.057 403.484 239.797C402.87 239.536 402.151 239.406 401.328 239.406C400.516 239.417 399.802 239.568 399.188 239.859C398.573 240.141 398.057 240.516 397.641 240.984C397.234 241.443 396.922 241.938 396.703 242.469C396.495 243 396.38 243.521 396.359 244.031ZM422.359 251.969V243.25C422.359 242.448 422.193 241.755 421.859 241.172C421.526 240.589 421.036 240.141 420.391 239.828C419.745 239.516 418.948 239.359 418 239.359C417.125 239.359 416.344 239.516 415.656 239.828C414.979 240.13 414.443 240.542 414.047 241.062C413.661 241.573 413.469 242.141 413.469 242.766L411.594 242.75C411.594 242.115 411.75 241.5 412.062 240.906C412.375 240.312 412.818 239.781 413.391 239.312C413.964 238.844 414.646 238.474 415.438 238.203C416.24 237.922 417.12 237.781 418.078 237.781C419.286 237.781 420.349 237.984 421.266 238.391C422.193 238.797 422.917 239.406 423.438 240.219C423.958 241.031 424.219 242.052 424.219 243.281V251.453C424.219 252.036 424.26 252.641 424.344 253.266C424.438 253.891 424.568 254.406 424.734 254.812V255H422.75C422.625 254.625 422.526 254.156 422.453 253.594C422.391 253.021 422.359 252.479 422.359 251.969ZM422.797 245.156L422.828 246.594H419.156C418.198 246.594 417.339 246.682 416.578 246.859C415.828 247.026 415.193 247.276 414.672 247.609C414.151 247.932 413.75 248.323 413.469 248.781C413.198 249.24 413.062 249.76 413.062 250.344C413.062 250.948 413.214 251.5 413.516 252C413.828 252.5 414.266 252.901 414.828 253.203C415.401 253.495 416.078 253.641 416.859 253.641C417.901 253.641 418.818 253.448 419.609 253.062C420.411 252.677 421.073 252.172 421.594 251.547C422.115 250.922 422.464 250.24 422.641 249.5L423.453 250.578C423.318 251.099 423.068 251.635 422.703 252.188C422.349 252.729 421.885 253.24 421.312 253.719C420.74 254.188 420.062 254.573 419.281 254.875C418.51 255.167 417.635 255.312 416.656 255.312C415.552 255.312 414.589 255.104 413.766 254.688C412.953 254.271 412.318 253.703 411.859 252.984C411.411 252.255 411.188 251.432 411.188 250.516C411.188 249.682 411.365 248.938 411.719 248.281C412.073 247.615 412.583 247.052 413.25 246.594C413.927 246.125 414.74 245.771 415.688 245.531C416.646 245.281 417.719 245.156 418.906 245.156H422.797ZM431.312 238.094V255H429.453V238.094H431.312ZM429.125 233.203C429.125 232.849 429.234 232.552 429.453 232.312C429.682 232.062 429.995 231.938 430.391 231.938C430.786 231.938 431.099 232.062 431.328 232.312C431.568 232.552 431.688 232.849 431.688 233.203C431.688 233.547 431.568 233.844 431.328 234.094C431.099 234.333 430.786 234.453 430.391 234.453C429.995 234.453 429.682 234.333 429.453 234.094C429.234 233.844 429.125 233.547 429.125 233.203ZM438.5 231V255H436.641V231H438.5ZM443.438 253.859C443.438 253.495 443.552 253.188 443.781 252.938C444.021 252.677 444.344 252.547 444.75 252.547C445.167 252.547 445.495 252.672 445.734 252.922C445.974 253.172 446.094 253.484 446.094 253.859C446.094 254.214 445.974 254.516 445.734 254.766C445.495 255.016 445.167 255.141 444.75 255.141C444.344 255.141 444.021 255.016 443.781 254.766C443.552 254.516 443.438 254.214 443.438 253.859ZM457.5 253.703C458.292 253.703 459.031 253.557 459.719 253.266C460.417 252.964 460.99 252.521 461.438 251.938C461.896 251.344 462.156 250.62 462.219 249.766H464C463.948 250.839 463.62 251.797 463.016 252.641C462.422 253.474 461.641 254.13 460.672 254.609C459.714 255.078 458.656 255.312 457.5 255.312C456.323 255.312 455.281 255.099 454.375 254.672C453.479 254.245 452.729 253.651 452.125 252.891C451.521 252.12 451.062 251.224 450.75 250.203C450.448 249.172 450.297 248.062 450.297 246.875V246.219C450.297 245.031 450.448 243.927 450.75 242.906C451.062 241.875 451.521 240.979 452.125 240.219C452.729 239.448 453.479 238.849 454.375 238.422C455.271 237.995 456.307 237.781 457.484 237.781C458.693 237.781 459.776 238.026 460.734 238.516C461.703 239.005 462.474 239.698 463.047 240.594C463.63 241.49 463.948 242.552 464 243.781H462.219C462.167 242.875 461.927 242.094 461.5 241.438C461.073 240.781 460.51 240.276 459.812 239.922C459.115 239.568 458.339 239.391 457.484 239.391C456.526 239.391 455.708 239.578 455.031 239.953C454.354 240.318 453.802 240.823 453.375 241.469C452.958 242.104 452.651 242.833 452.453 243.656C452.255 244.469 452.156 245.323 452.156 246.219V246.875C452.156 247.781 452.25 248.646 452.438 249.469C452.635 250.281 452.943 251.005 453.359 251.641C453.786 252.276 454.339 252.781 455.016 253.156C455.703 253.521 456.531 253.703 457.5 253.703ZM466.734 246.812V246.297C466.734 245.068 466.911 243.932 467.266 242.891C467.62 241.849 468.125 240.948 468.781 240.188C469.448 239.427 470.245 238.839 471.172 238.422C472.099 237.995 473.13 237.781 474.266 237.781C475.411 237.781 476.448 237.995 477.375 238.422C478.302 238.839 479.099 239.427 479.766 240.188C480.432 240.948 480.943 241.849 481.297 242.891C481.651 243.932 481.828 245.068 481.828 246.297V246.812C481.828 248.042 481.651 249.177 481.297 250.219C480.943 251.25 480.432 252.146 479.766 252.906C479.109 253.667 478.318 254.26 477.391 254.688C476.464 255.104 475.432 255.312 474.297 255.312C473.151 255.312 472.115 255.104 471.188 254.688C470.26 254.26 469.464 253.667 468.797 252.906C468.13 252.146 467.62 251.25 467.266 250.219C466.911 249.177 466.734 248.042 466.734 246.812ZM468.594 246.297V246.812C468.594 247.74 468.719 248.62 468.969 249.453C469.219 250.276 469.583 251.01 470.062 251.656C470.542 252.292 471.135 252.792 471.844 253.156C472.552 253.521 473.37 253.703 474.297 253.703C475.214 253.703 476.021 253.521 476.719 253.156C477.427 252.792 478.021 252.292 478.5 251.656C478.979 251.01 479.339 250.276 479.578 249.453C479.828 248.62 479.953 247.74 479.953 246.812V246.297C479.953 245.38 479.828 244.51 479.578 243.688C479.339 242.865 478.974 242.13 478.484 241.484C478.005 240.839 477.411 240.328 476.703 239.953C475.995 239.578 475.182 239.391 474.266 239.391C473.349 239.391 472.536 239.578 471.828 239.953C471.13 240.328 470.536 240.839 470.047 241.484C469.568 242.13 469.203 242.865 468.953 243.688C468.714 244.51 468.594 245.38 468.594 246.297ZM487.469 241.594V255H485.594V238.094H487.391L487.469 241.594ZM487.125 245.5L486.219 245.031C486.281 244.031 486.469 243.094 486.781 242.219C487.104 241.344 487.552 240.573 488.125 239.906C488.698 239.24 489.385 238.719 490.188 238.344C490.99 237.969 491.901 237.781 492.922 237.781C493.745 237.781 494.49 237.896 495.156 238.125C495.833 238.344 496.406 238.693 496.875 239.172C497.354 239.641 497.724 240.255 497.984 241.016C498.245 241.776 498.375 242.688 498.375 243.75V255H496.516V243.812C496.516 242.688 496.339 241.807 495.984 241.172C495.641 240.536 495.156 240.083 494.531 239.812C493.917 239.542 493.203 239.406 492.391 239.406C491.432 239.406 490.62 239.604 489.953 240C489.297 240.385 488.76 240.891 488.344 241.516C487.938 242.13 487.635 242.792 487.438 243.5C487.24 244.198 487.135 244.865 487.125 245.5ZM498.359 244.031L497.109 244.062C497.161 243.24 497.349 242.453 497.672 241.703C498.005 240.953 498.458 240.286 499.031 239.703C499.604 239.109 500.286 238.641 501.078 238.297C501.88 237.953 502.781 237.781 503.781 237.781C504.656 237.781 505.438 237.901 506.125 238.141C506.812 238.37 507.391 238.74 507.859 239.25C508.339 239.75 508.703 240.391 508.953 241.172C509.203 241.953 509.328 242.891 509.328 243.984V255H507.453V243.969C507.453 242.771 507.276 241.844 506.922 241.188C506.578 240.521 506.099 240.057 505.484 239.797C504.87 239.536 504.151 239.406 503.328 239.406C502.516 239.417 501.802 239.568 501.188 239.859C500.573 240.141 500.057 240.516 499.641 240.984C499.234 241.443 498.922 241.938 498.703 242.469C498.495 243 498.38 243.521 498.359 244.031Z" fill="white"/>
<a href="mailto:Laurens.weterings@gmail.com">
<rect fill="black" fill-opacity="0" y="0.25" width="434.625" height="37.5"/>
</a>
<path d="M37.5052 238.297L51.5 245.293L65.4947 238.297C65.4429 237.405 65.0522 236.567 64.4024 235.954C63.7527 235.341 62.8932 235 62 235H41C40.1068 235 39.2473 235.341 38.5976 235.954C37.9478 236.567 37.5571 237.405 37.5052 238.297Z" fill="white"/>
<path d="M65.5 242.207L51.5 249.207L37.5 242.207V252.5C37.5 253.428 37.8687 254.319 38.5251 254.975C39.1815 255.631 40.0717 256 41 256H62C62.9283 256 63.8185 255.631 64.4749 254.975C65.1313 254.319 65.5 253.428 65.5 252.5V242.207Z" fill="white"/>
<defs>
<clipPath id="clip0_77_74">
<rect width="418" height="382" fill="white" transform="translate(128 218)"/>
</clipPath>
</defs>
</svg>
