<svg xmlns="http://www.w3.org/2000/svg" xmlns:xlink="http://www.w3.org/1999/xlink" viewBox="0 0 853 708.04"><defs><style>.cls-1{fill:none;}.cls-10,.cls-2{fill:#fffbeb;}.cls-3{fill:#ffb8b8;}.cls-4{fill:#3f3d56;}.cls-5{fill:#2f2e41;}.cls-6{fill:#e6e6e6;}.cls-7{fill:#fff;}.cls-8{fill:#6c63ff;}.cls-9{fill:#f2f2f2;}.cls-10{stroke:#000;stroke-miterlimit:10;}.cls-11{clip-path:url(#clip-path);}</style><clipPath id="clip-path" transform="translate(0 -3.42)"><ellipse class="cls-1" cx="426.5" cy="350.92" rx="426.5" ry="347.5"/></clipPath></defs><title>skills</title><g id="Layer_2" data-name="Layer 2"><ellipse class="cls-2" cx="426.5" cy="347.5" rx="426.5" ry="347.5"/></g><g id="Layer_1" data-name="Layer 1"><path class="cls-3" d="M90.09,352a28,28,0,0,0,38.38,9.63,26.9,26.9,0,0,0,4-2.9l86.26,49.48-3.21-51.58-81.42-39.07a28.13,28.13,0,0,0-44,34.44Z" transform="translate(0 -3.42)"/><circle class="cls-3" cx="443.25" cy="111.22" r="61.36"/><path class="cls-4" d="M487.6,191.93l12,23,83,37L560.79,463.06l-9.19,21.87,5,19-12,14c12,10.86,13.54,22.23,7,34l-38.22,8.75s-212.52,18.9-194.61-14c19.57-36,24.55-142.22-18.65-199-36.68-48.2-8.52-110.74-8.52-110.74l87-26,32-19Z" transform="translate(0 -3.42)"/><path class="cls-5" d="M470.5,24.75a3.37,3.37,0,0,1,3.25-1.93c-28.09-1.68-57.68,1.59-81.19,17.08-5.69,3.75-11.06,8.22-17.25,10.94a1.86,1.86,0,0,0-.94,2.46,1.91,1.91,0,0,0,.56.7l.68.54a1.86,1.86,0,0,1,.31,2.62,1.8,1.8,0,0,1-.92.63h0a1.87,1.87,0,0,0-.47,3.35l5.22,3.37a1.86,1.86,0,0,1,0,3.13,8.94,8.94,0,0,1-1.38.7,1.86,1.86,0,0,0-1.09,2.4,1.74,1.74,0,0,0,.5.73,18.52,18.52,0,0,1,5,7.38c1.74,4.52,2.05,9.44,2.35,14.27,1.79-7,9.4-11.08,16.59-11.49s14.21,2,21.2,3.66a117.38,117.38,0,0,0,46.55,1.79c-5.26,10.55-.82,23.13,3.64,34l14.44-6.19c19.84-11.2,6,36.16-1.39,42.67,15.14,5.25,54.77-53,42-75.12-6.63-11.5-1.92-26.32-15-37.23-6.39-6.72-19.15-3.73-25.67-9.32-2.56-2.2,1.35-8.09-2.18-9.38C484.25,26.13,470.69,24.32,470.5,24.75Z" transform="translate(0 -3.42)"/><path class="cls-4" d="M366.55,216.87c-11.26,50-40.14,166.71-69.44,191.12a17,17,0,0,1-6.52,3.85c-103,25.09-136-38.91-136-38.91s27.6-13.45,28.3-39.74l55.66,17.27,48.52-109.19,7.14-6.66,0,0Z" transform="translate(0 -3.42)"/><path class="cls-4" d="M559.72,246.6l22.88,5.33S677.19,436,654.4,471s-50.72,151.15-50.72,151.15-41.3-8.21-57.08-29.24l28.9-137.69L545.69,339.52Z" transform="translate(0 -3.42)"/><path class="cls-6" d="M125.58,519.88l.82-296.39a22.65,22.65,0,0,1,22.69-22.56l223.84.62a22.64,22.64,0,0,1,22.56,22.69l-.82,296.38A22.66,22.66,0,0,1,372,543.19l-223.84-.62A22.65,22.65,0,0,1,125.58,519.88Z" transform="translate(0 -3.42)"/><path class="cls-7" d="M143,430.4l.53-190.54a21.21,21.21,0,0,1,21.25-21.13l192.37.53a21.22,21.22,0,0,1,21.13,21.25l-.73,263.75a21.22,21.22,0,0,1-21.25,21.13l-119.17-.33A94.5,94.5,0,0,1,143,430.4Z" transform="translate(0 -3.42)"/><path class="cls-8" d="M335.1,302.43h-150a9,9,0,1,1,0-18h150a9,9,0,0,1,0,18Z" transform="translate(0 -3.42)"/><path class="cls-8" d="M218.1,260.93h-33a9,9,0,1,1,0-18h33a9,9,0,0,1,0,18Z" transform="translate(0 -3.42)"/><path class="cls-8" d="M335.1,343.93h-150a9,9,0,1,1,0-18h150a9,9,0,0,1,0,18Z" transform="translate(0 -3.42)"/><path class="cls-8" d="M335.1,385.43h-150a9,9,0,1,1,0-18h150a9,9,0,0,1,0,18Z" transform="translate(0 -3.42)"/><circle class="cls-8" cx="322.97" cy="458.97" r="35.81" transform="matrix(0.07, -1, 1, 0.07, -157.74, 745.16)"/><path class="cls-7" d="M318.08,477.6a4,4,0,0,1-3.19-1.59l-9.77-13a4,4,0,0,1,6.38-4.78l6.39,8.52,16.42-24.62a4,4,0,1,1,6.63,4.41h0L321.4,475.83a4,4,0,0,1-3.21,1.77Z" transform="translate(0 -3.42)"/><circle class="cls-9" cx="246.6" cy="111.5" r="17"/><circle class="cls-9" cx="184.6" cy="600.5" r="17"/><circle class="cls-9" cx="575.6" cy="177.5" r="17"/><path class="cls-10" d="M71,97.93" transform="translate(0 -3.42)"/></g><g id="Layer_3" data-name="Layer 3"><g class="cls-11"><path class="cls-5" d="M339.81,550.16c-25.59,35.81-24.67,95.73-17.53,161.3h121l5.26-12.27,7,12.27h114s-8.77-166.56-24.55-171.82S339.81,550.16,339.81,550.16Z" transform="translate(0 -3.42)"/><path class="cls-3" d="M586.15,678.5a28,28,0,0,0,.78-39.57,29.38,29.38,0,0,0-3.72-3.24l28.87-95.15-49.54,14.7-19.82,88.1a28.14,28.14,0,0,0,43.43,35.16Z" transform="translate(0 -3.42)"/></g></g></svg>